M48
;DRILL file {KiCad 4.0.1-3.201512221401+6198~38~ubuntu15.10.1-stable} date Tue 05 Apr 2016 01:33:00 PM EEST
;FORMAT={-:-/ absolute / metric / decimal}
FMAT,2
METRIC,TZ
T1C0.600
T2C1.000
T3C1.300
%
G90
G05
M71
T1
X127.889Y-100.33
X127.889Y-102.87
X127.889Y-105.41
X127.889Y-108.458
X128.016Y-114.808
X128.016Y-117.475
X128.016Y-119.761
X128.016Y-121.92
X128.016Y-124.46
X128.016Y-125.984
X129.693Y-116.46
X129.736Y-118.17
X129.736Y-119.692
X129.736Y-120.973
X130.175Y-125.984
X131.064Y-116.459
X131.064Y-119.761
X131.114Y-118.16
X131.445Y-97.536
X132.08Y-106.68
X132.08Y-121.666
X133.223Y-121.666
X133.223Y-122.936
X133.35Y-107.95
X133.35Y-116.459
X133.4Y-118.16
X134.62Y-121.666
X135.636Y-121.666
X136.017Y-98.171
X136.017Y-103.378
X137.16Y-98.171
X137.287Y-104.648
X138.303Y-98.171
X138.303Y-105.664
X138.303Y-113.411
X139.375Y-97.545
X141.Y-111.124
X141.03Y-109.955
X141.097Y-106.68
X141.605Y-97.536
X144.145Y-97.536
X144.862Y-106.679
X145.161Y-111.506
X145.288Y-109.982
X146.177Y-104.521
X146.177Y-105.664
X146.177Y-112.649
X146.685Y-97.536
X147.066Y-111.506
X147.066Y-112.649
X147.447Y-104.521
X148.943Y-97.536
X148.943Y-99.06
X148.943Y-100.33
X148.943Y-101.6
X148.943Y-103.01
X149.733Y-106.807
X149.733Y-107.696
X149.733Y-111.76
X149.733Y-112.711
X151.13Y-97.536
X156.21Y-100.33
X156.21Y-109.22
X156.22Y-104.156
X157.48Y-100.33
X157.48Y-105.41
X157.48Y-109.22
X157.482Y-113.927
X158.75Y-109.22
X159.131Y-104.521
X159.385Y-100.33
X160.02Y-109.22
X160.782Y-104.521
X161.29Y-100.33
X161.29Y-109.22
X162.306Y-104.521
X162.56Y-109.22
X163.195Y-100.33
X163.83Y-109.22
X163.957Y-104.521
X165.605Y-109.21
X165.608Y-100.457
X165.608Y-104.521
X167.259Y-104.521
X167.64Y-100.33
X167.64Y-109.21
X168.783Y-104.521
X168.91Y-109.21
X169.545Y-100.33
X170.18Y-109.21
X170.307Y-104.521
X171.45Y-99.695
X171.45Y-112.903
X171.45Y-119.38
X172.72Y-109.21
X172.974Y-104.521
X174.615Y-109.21
X174.752Y-104.521
X176.053Y-99.949
X176.53Y-112.903
X177.8Y-112.903
X178.308Y-99.949
X179.07Y-97.536
X180.975Y-97.536
X180.975Y-104.521
X182.245Y-125.984
X182.88Y-104.521
X184.404Y-104.521
X184.404Y-114.808
X184.404Y-116.84
X184.404Y-118.745
X184.404Y-123.825
X184.404Y-125.984
X184.436Y-100.33
X184.436Y-102.235
X184.436Y-106.68
X184.436Y-108.705
T2
X129.54Y-101.6
X129.54Y-104.14
X129.54Y-106.68
T3
X139.375Y-100.965
X142.875Y-100.965
X146.375Y-100.965
T0
M30
