G04 #@! TF.FileFunction,Paste,Top*
%FSLAX46Y46*%
G04 Gerber Fmt 4.6, Leading zero omitted, Abs format (unit mm)*
G04 Created by KiCad (PCBNEW 4.0.1-3.201512221401+6198~38~ubuntu15.10.1-stable) date Tue 05 Apr 2016 01:32:55 PM EEST*
%MOMM*%
G01*
G04 APERTURE LIST*
%ADD10C,0.100000*%
%ADD11C,0.254000*%
%ADD12R,1.016000X1.016000*%
%ADD13R,0.700000X1.800000*%
%ADD14R,1.030000X1.060000*%
%ADD15R,1.778000X1.524000*%
%ADD16R,1.000000X4.250000*%
%ADD17R,2.200000X0.600000*%
G04 APERTURE END LIST*
D10*
D11*
X127000000Y-96520000D02*
X127000000Y-127000000D01*
X185420000Y-96520000D02*
X127000000Y-96520000D01*
X185420000Y-127000000D02*
X185420000Y-96520000D01*
X127000000Y-127000000D02*
X185420000Y-127000000D01*
D12*
X146177000Y-111506000D03*
X146177000Y-109728000D03*
X147955000Y-111506000D03*
X147955000Y-109728000D03*
D13*
X153670000Y-107188000D03*
X153670000Y-111252000D03*
X154940000Y-107188000D03*
X154940000Y-111252000D03*
X156210000Y-107188000D03*
X156210000Y-111252000D03*
X157480000Y-107188000D03*
X157480000Y-111252000D03*
X158750000Y-107188000D03*
X158750000Y-111252000D03*
X160020000Y-107188000D03*
X160020000Y-111252000D03*
X161290000Y-107188000D03*
X161290000Y-111252000D03*
X162560000Y-107188000D03*
X162560000Y-111252000D03*
X163830000Y-107188000D03*
X163830000Y-111252000D03*
X165100000Y-107188000D03*
X165100000Y-111252000D03*
X177800000Y-111252000D03*
X177800000Y-107188000D03*
X176530000Y-111252000D03*
X176530000Y-107188000D03*
X175260000Y-111252000D03*
X175260000Y-107188000D03*
X173990000Y-111252000D03*
X173990000Y-107188000D03*
X172720000Y-111252000D03*
X172720000Y-107188000D03*
X171450000Y-111252000D03*
X171450000Y-107188000D03*
X170180000Y-111252000D03*
X170180000Y-107188000D03*
X168910000Y-111252000D03*
X168910000Y-107188000D03*
X167640000Y-111252000D03*
X167640000Y-107188000D03*
X166370000Y-111252000D03*
X166370000Y-107188000D03*
X153670000Y-102362000D03*
X153670000Y-98298000D03*
X154940000Y-102362000D03*
X154940000Y-98298000D03*
X156210000Y-102362000D03*
X156210000Y-98298000D03*
X157480000Y-102362000D03*
X157480000Y-98298000D03*
X158750000Y-102362000D03*
X158750000Y-98298000D03*
X160020000Y-102362000D03*
X160020000Y-98298000D03*
X161290000Y-102362000D03*
X161290000Y-98298000D03*
X162560000Y-102362000D03*
X162560000Y-98298000D03*
X163830000Y-102362000D03*
X163830000Y-98298000D03*
X165100000Y-102362000D03*
X165100000Y-98298000D03*
X177800000Y-98298000D03*
X177800000Y-102362000D03*
X176530000Y-98298000D03*
X176530000Y-102362000D03*
X175260000Y-98298000D03*
X175260000Y-102362000D03*
X173990000Y-98298000D03*
X173990000Y-102362000D03*
X172720000Y-98298000D03*
X172720000Y-102362000D03*
X171450000Y-98298000D03*
X171450000Y-102362000D03*
X170180000Y-98298000D03*
X170180000Y-102362000D03*
X168910000Y-98298000D03*
X168910000Y-102362000D03*
X167640000Y-98298000D03*
X167640000Y-102362000D03*
X166370000Y-98298000D03*
X166370000Y-102362000D03*
D14*
X133096000Y-98171000D03*
X134874000Y-98171000D03*
D12*
X134874000Y-100330000D03*
X133096000Y-100330000D03*
X142240000Y-106680000D03*
X144018000Y-106680000D03*
X140081000Y-114427000D03*
X138303000Y-114427000D03*
X140081000Y-106680000D03*
X138303000Y-106680000D03*
X147955000Y-114427000D03*
X146177000Y-114427000D03*
X147955000Y-108204000D03*
X146177000Y-108204000D03*
D15*
X135255000Y-109982000D03*
X135255000Y-107188000D03*
D12*
X146177000Y-106680000D03*
X147955000Y-106680000D03*
D16*
X132080000Y-124410000D03*
X132080000Y-118160000D03*
X134620000Y-124410000D03*
X134620000Y-118160000D03*
X137160000Y-124410000D03*
X137160000Y-118160000D03*
X139700000Y-124410000D03*
X139700000Y-118160000D03*
X142240000Y-124410000D03*
X142240000Y-118160000D03*
X144780000Y-124410000D03*
X144780000Y-118160000D03*
X147320000Y-124410000D03*
X147320000Y-118160000D03*
X149860000Y-124410000D03*
X149860000Y-118160000D03*
X152400000Y-124410000D03*
X152400000Y-118160000D03*
X154940000Y-124410000D03*
X154940000Y-118160000D03*
X157480000Y-124410000D03*
X157480000Y-118160000D03*
X160020000Y-124410000D03*
X160020000Y-118160000D03*
X162560000Y-124410000D03*
X162560000Y-118160000D03*
X165100000Y-124410000D03*
X165100000Y-118160000D03*
X167640000Y-124410000D03*
X167640000Y-118160000D03*
X170180000Y-124410000D03*
X170180000Y-118160000D03*
X172720000Y-124410000D03*
X172720000Y-118160000D03*
X175260000Y-124410000D03*
X175260000Y-118160000D03*
X177800000Y-124410000D03*
X177800000Y-118160000D03*
X180340000Y-124410000D03*
X180340000Y-118160000D03*
D17*
X143597000Y-112522000D03*
X143597000Y-111252000D03*
X143597000Y-109982000D03*
X143597000Y-108712000D03*
X138597000Y-108712000D03*
X138597000Y-109982000D03*
X138597000Y-111252000D03*
X138597000Y-112522000D03*
M02*
