G04 #@! TF.FileFunction,Legend,Top*
%FSLAX46Y46*%
G04 Gerber Fmt 4.6, Leading zero omitted, Abs format (unit mm)*
G04 Created by KiCad (PCBNEW 4.0.1-3.201512221401+6198~38~ubuntu15.10.1-stable) date Tue 05 Apr 2016 01:32:55 PM EEST*
%MOMM*%
G01*
G04 APERTURE LIST*
%ADD10C,0.100000*%
%ADD11C,0.200000*%
%ADD12C,0.222250*%
%ADD13C,0.254000*%
%ADD14C,0.317500*%
%ADD15C,0.381000*%
%ADD16C,0.127000*%
%ADD17C,0.150000*%
%ADD18C,0.050000*%
%ADD19C,0.009000*%
%ADD20C,0.203200*%
%ADD21C,0.250000*%
%ADD22C,0.190500*%
%ADD23C,0.158750*%
G04 APERTURE END LIST*
D10*
D11*
X139954000Y-108204000D02*
X139954000Y-108458000D01*
X140081000Y-108458000D02*
X139827000Y-108458000D01*
X140081000Y-108204000D02*
X140081000Y-108458000D01*
D12*
X184382833Y-107505500D02*
X184340500Y-107547834D01*
X184213500Y-107632500D01*
X184128833Y-107674834D01*
X184001833Y-107717167D01*
X183790167Y-107759500D01*
X183620833Y-107759500D01*
X183409167Y-107717167D01*
X183282167Y-107674834D01*
X183197500Y-107632500D01*
X183070500Y-107547834D01*
X183028167Y-107505500D01*
X183959500Y-106658833D02*
X184001833Y-106701167D01*
X184044167Y-106828167D01*
X184044167Y-106912833D01*
X184001833Y-107039833D01*
X183917167Y-107124500D01*
X183832500Y-107166833D01*
X183663167Y-107209167D01*
X183536167Y-107209167D01*
X183366833Y-107166833D01*
X183282167Y-107124500D01*
X183197500Y-107039833D01*
X183155167Y-106912833D01*
X183155167Y-106828167D01*
X183197500Y-106701167D01*
X183239833Y-106658833D01*
X184382833Y-106362500D02*
X184340500Y-106320167D01*
X184213500Y-106235500D01*
X184128833Y-106193167D01*
X184001833Y-106150833D01*
X183790167Y-106108500D01*
X183620833Y-106108500D01*
X183409167Y-106150833D01*
X183282167Y-106193167D01*
X183197500Y-106235500D01*
X183070500Y-106320167D01*
X183028167Y-106362500D01*
X183239833Y-105050167D02*
X183197500Y-105007833D01*
X183155167Y-104923167D01*
X183155167Y-104711500D01*
X183197500Y-104626833D01*
X183239833Y-104584500D01*
X183324500Y-104542167D01*
X183409167Y-104542167D01*
X183536167Y-104584500D01*
X184044167Y-105092500D01*
X184044167Y-104542167D01*
X183155167Y-103991833D02*
X183155167Y-103907166D01*
X183197500Y-103822500D01*
X183239833Y-103780166D01*
X183324500Y-103737833D01*
X183493833Y-103695500D01*
X183705500Y-103695500D01*
X183874833Y-103737833D01*
X183959500Y-103780166D01*
X184001833Y-103822500D01*
X184044167Y-103907166D01*
X184044167Y-103991833D01*
X184001833Y-104076500D01*
X183959500Y-104118833D01*
X183874833Y-104161166D01*
X183705500Y-104203500D01*
X183493833Y-104203500D01*
X183324500Y-104161166D01*
X183239833Y-104118833D01*
X183197500Y-104076500D01*
X183155167Y-103991833D01*
X184044167Y-102848833D02*
X184044167Y-103356833D01*
X184044167Y-103102833D02*
X183155167Y-103102833D01*
X183282167Y-103187499D01*
X183366833Y-103272166D01*
X183409167Y-103356833D01*
X183155167Y-102086832D02*
X183155167Y-102256166D01*
X183197500Y-102340832D01*
X183239833Y-102383166D01*
X183366833Y-102467832D01*
X183536167Y-102510166D01*
X183874833Y-102510166D01*
X183959500Y-102467832D01*
X184001833Y-102425499D01*
X184044167Y-102340832D01*
X184044167Y-102171499D01*
X184001833Y-102086832D01*
X183959500Y-102044499D01*
X183874833Y-102002166D01*
X183663167Y-102002166D01*
X183578500Y-102044499D01*
X183536167Y-102086832D01*
X183493833Y-102171499D01*
X183493833Y-102340832D01*
X183536167Y-102425499D01*
X183578500Y-102467832D01*
X183663167Y-102510166D01*
D13*
X145087422Y-99646736D02*
X145087422Y-99715157D01*
X145019001Y-99851999D01*
X144950580Y-99920420D01*
X144813738Y-99988840D01*
X144676896Y-99988840D01*
X144574264Y-99954630D01*
X144403212Y-99851998D01*
X144300581Y-99749367D01*
X144197949Y-99578315D01*
X144163739Y-99475683D01*
X144163739Y-99338841D01*
X144232159Y-99201999D01*
X144300580Y-99133578D01*
X144437422Y-99065157D01*
X144505843Y-99065157D01*
X145224264Y-99236209D02*
X145566368Y-98894105D01*
X145361106Y-99509894D02*
X144882159Y-98551999D01*
X145840053Y-99030947D01*
X146079526Y-98791473D02*
X145361106Y-98073053D01*
X146490052Y-98380947D01*
X145771632Y-97662527D01*
X146832157Y-98038842D02*
X146113737Y-97320422D01*
X146455842Y-97662527D02*
X146866368Y-97252001D01*
X147242683Y-97628316D02*
X146524263Y-96909896D01*
X141616948Y-99561210D02*
X141616948Y-99629631D01*
X141548527Y-99766473D01*
X141480105Y-99834894D01*
X141343264Y-99903314D01*
X141206422Y-99903314D01*
X141103790Y-99869104D01*
X140932738Y-99766472D01*
X140830107Y-99663841D01*
X140727475Y-99492789D01*
X140693265Y-99390157D01*
X140693265Y-99253315D01*
X140761685Y-99116473D01*
X140830106Y-99048052D01*
X140966948Y-98979631D01*
X141035369Y-98979631D01*
X141753790Y-99150683D02*
X142095894Y-98808579D01*
X141890632Y-99424368D02*
X141411685Y-98466473D01*
X142369579Y-98945421D01*
X142609052Y-98705947D02*
X141890632Y-97987527D01*
X143019578Y-98295421D01*
X142301158Y-97577001D01*
X143703788Y-97611211D02*
X143361683Y-97953316D01*
X142643263Y-97234896D01*
X138158422Y-98359158D02*
X138055790Y-98393368D01*
X137953159Y-98496000D01*
X137884738Y-98632841D01*
X137884738Y-98769683D01*
X137918949Y-98872315D01*
X138021581Y-99043368D01*
X138124211Y-99145998D01*
X138295264Y-99248630D01*
X138397896Y-99282841D01*
X138534738Y-99282841D01*
X138671579Y-99214420D01*
X138740000Y-99145999D01*
X138808421Y-99009157D01*
X138808421Y-98940736D01*
X138568948Y-98701262D01*
X138432105Y-98838104D01*
X139184737Y-98701262D02*
X138466317Y-97982842D01*
X139595263Y-98290737D01*
X138876842Y-97572316D01*
X139937368Y-97948631D02*
X139218948Y-97230211D01*
X139390000Y-97059158D01*
X139526842Y-96990738D01*
X139663684Y-96990738D01*
X139766316Y-97024948D01*
X139937368Y-97127580D01*
X140039999Y-97230211D01*
X140142631Y-97401263D01*
X140176841Y-97503895D01*
X140176841Y-97640737D01*
X140108421Y-97777579D01*
X139937368Y-97948631D01*
D14*
X158919334Y-114493524D02*
X158496001Y-113888762D01*
X158193620Y-114493524D02*
X158193620Y-113223524D01*
X158677429Y-113223524D01*
X158798382Y-113284000D01*
X158858858Y-113344476D01*
X158919334Y-113465429D01*
X158919334Y-113646857D01*
X158858858Y-113767810D01*
X158798382Y-113828286D01*
X158677429Y-113888762D01*
X158193620Y-113888762D01*
X159947429Y-114433048D02*
X159826477Y-114493524D01*
X159584572Y-114493524D01*
X159463620Y-114433048D01*
X159403144Y-114312095D01*
X159403144Y-113828286D01*
X159463620Y-113707333D01*
X159584572Y-113646857D01*
X159826477Y-113646857D01*
X159947429Y-113707333D01*
X160007906Y-113828286D01*
X160007906Y-113949238D01*
X159403144Y-114070190D01*
X160431239Y-113646857D02*
X160733620Y-114493524D01*
X161036000Y-113646857D01*
X161519810Y-114372571D02*
X161580286Y-114433048D01*
X161519810Y-114493524D01*
X161459334Y-114433048D01*
X161519810Y-114372571D01*
X161519810Y-114493524D01*
X162064096Y-114130667D02*
X162668858Y-114130667D01*
X161943143Y-114493524D02*
X162366477Y-113223524D01*
X162789810Y-114493524D01*
D15*
X154220334Y-105198333D02*
X155067000Y-105198333D01*
X154051000Y-105706333D02*
X154643667Y-103928333D01*
X155236334Y-105706333D01*
X155744334Y-104097667D02*
X155829000Y-104013000D01*
X155998334Y-103928333D01*
X156421667Y-103928333D01*
X156591000Y-104013000D01*
X156675667Y-104097667D01*
X156760334Y-104267000D01*
X156760334Y-104436333D01*
X156675667Y-104690333D01*
X155659667Y-105706333D01*
X156760334Y-105706333D01*
X157861000Y-103928333D02*
X158030333Y-103928333D01*
X158199667Y-104013000D01*
X158284333Y-104097667D01*
X158369000Y-104267000D01*
X158453667Y-104605667D01*
X158453667Y-105029000D01*
X158369000Y-105367667D01*
X158284333Y-105537000D01*
X158199667Y-105621667D01*
X158030333Y-105706333D01*
X157861000Y-105706333D01*
X157691667Y-105621667D01*
X157607000Y-105537000D01*
X157522333Y-105367667D01*
X157437667Y-105029000D01*
X157437667Y-104605667D01*
X157522333Y-104267000D01*
X157607000Y-104097667D01*
X157691667Y-104013000D01*
X157861000Y-103928333D01*
X159215666Y-105029000D02*
X160570333Y-105029000D01*
X162432999Y-105537000D02*
X162348333Y-105621667D01*
X162094333Y-105706333D01*
X161924999Y-105706333D01*
X161670999Y-105621667D01*
X161501666Y-105452333D01*
X161416999Y-105283000D01*
X161332333Y-104944333D01*
X161332333Y-104690333D01*
X161416999Y-104351667D01*
X161501666Y-104182333D01*
X161670999Y-104013000D01*
X161924999Y-103928333D01*
X162094333Y-103928333D01*
X162348333Y-104013000D01*
X162432999Y-104097667D01*
X163110333Y-105198333D02*
X163956999Y-105198333D01*
X162940999Y-105706333D02*
X163533666Y-103928333D01*
X164126333Y-105706333D01*
X164718999Y-105706333D02*
X164718999Y-103928333D01*
X165734999Y-105706333D01*
X165734999Y-103928333D01*
X148759334Y-132050367D02*
X148844000Y-131965700D01*
X149013334Y-131881033D01*
X149436667Y-131881033D01*
X149606000Y-131965700D01*
X149690667Y-132050367D01*
X149775334Y-132219700D01*
X149775334Y-132389033D01*
X149690667Y-132643033D01*
X148674667Y-133659033D01*
X149775334Y-133659033D01*
X151384000Y-133659033D02*
X150537333Y-133659033D01*
X150537333Y-131881033D01*
X152738666Y-133659033D02*
X152738666Y-132727700D01*
X152654000Y-132558367D01*
X152484666Y-132473700D01*
X152146000Y-132473700D01*
X151976666Y-132558367D01*
X152738666Y-133574367D02*
X152569333Y-133659033D01*
X152146000Y-133659033D01*
X151976666Y-133574367D01*
X151892000Y-133405033D01*
X151892000Y-133235700D01*
X151976666Y-133066367D01*
X152146000Y-132981700D01*
X152569333Y-132981700D01*
X152738666Y-132897033D01*
X153416000Y-132473700D02*
X153839333Y-133659033D01*
X154262667Y-132473700D02*
X153839333Y-133659033D01*
X153670000Y-134082367D01*
X153585333Y-134167033D01*
X153416000Y-134251700D01*
X155617334Y-133574367D02*
X155448000Y-133659033D01*
X155109334Y-133659033D01*
X154940000Y-133574367D01*
X154855334Y-133405033D01*
X154855334Y-132727700D01*
X154940000Y-132558367D01*
X155109334Y-132473700D01*
X155448000Y-132473700D01*
X155617334Y-132558367D01*
X155702000Y-132727700D01*
X155702000Y-132897033D01*
X154855334Y-133066367D01*
X156464000Y-133659033D02*
X156464000Y-132473700D01*
X156464000Y-132812367D02*
X156548667Y-132643033D01*
X156633334Y-132558367D01*
X156802667Y-132473700D01*
X156972000Y-132473700D01*
X157480001Y-133574367D02*
X157649334Y-133659033D01*
X157988001Y-133659033D01*
X158157334Y-133574367D01*
X158242001Y-133405033D01*
X158242001Y-133320367D01*
X158157334Y-133151033D01*
X157988001Y-133066367D01*
X157734001Y-133066367D01*
X157564667Y-132981700D01*
X157480001Y-132812367D01*
X157480001Y-132727700D01*
X157564667Y-132558367D01*
X157734001Y-132473700D01*
X157988001Y-132473700D01*
X158157334Y-132558367D01*
X160358667Y-133659033D02*
X160358667Y-131881033D01*
X161036001Y-131881033D01*
X161205334Y-131965700D01*
X161290001Y-132050367D01*
X161374667Y-132219700D01*
X161374667Y-132473700D01*
X161290001Y-132643033D01*
X161205334Y-132727700D01*
X161036001Y-132812367D01*
X160358667Y-132812367D01*
X163152667Y-133489700D02*
X163068001Y-133574367D01*
X162814001Y-133659033D01*
X162644667Y-133659033D01*
X162390667Y-133574367D01*
X162221334Y-133405033D01*
X162136667Y-133235700D01*
X162052001Y-132897033D01*
X162052001Y-132643033D01*
X162136667Y-132304367D01*
X162221334Y-132135033D01*
X162390667Y-131965700D01*
X162644667Y-131881033D01*
X162814001Y-131881033D01*
X163068001Y-131965700D01*
X163152667Y-132050367D01*
X164507334Y-132727700D02*
X164761334Y-132812367D01*
X164846001Y-132897033D01*
X164930667Y-133066367D01*
X164930667Y-133320367D01*
X164846001Y-133489700D01*
X164761334Y-133574367D01*
X164592001Y-133659033D01*
X163914667Y-133659033D01*
X163914667Y-131881033D01*
X164507334Y-131881033D01*
X164676667Y-131965700D01*
X164761334Y-132050367D01*
X164846001Y-132219700D01*
X164846001Y-132389033D01*
X164761334Y-132558367D01*
X164676667Y-132643033D01*
X164507334Y-132727700D01*
X163914667Y-132727700D01*
X149309666Y-136529233D02*
X149309666Y-134751233D01*
X149733000Y-134751233D01*
X149987000Y-134835900D01*
X150156333Y-135005233D01*
X150241000Y-135174567D01*
X150325666Y-135513233D01*
X150325666Y-135767233D01*
X150241000Y-136105900D01*
X150156333Y-136275233D01*
X149987000Y-136444567D01*
X149733000Y-136529233D01*
X149309666Y-136529233D01*
X151087666Y-136529233D02*
X151087666Y-135343900D01*
X151087666Y-134751233D02*
X151003000Y-134835900D01*
X151087666Y-134920567D01*
X151172333Y-134835900D01*
X151087666Y-134751233D01*
X151087666Y-134920567D01*
X151934333Y-136529233D02*
X151934333Y-135343900D01*
X151934333Y-135513233D02*
X152019000Y-135428567D01*
X152188333Y-135343900D01*
X152442333Y-135343900D01*
X152611667Y-135428567D01*
X152696333Y-135597900D01*
X152696333Y-136529233D01*
X152696333Y-135597900D02*
X152781000Y-135428567D01*
X152950333Y-135343900D01*
X153204333Y-135343900D01*
X153373667Y-135428567D01*
X153458333Y-135597900D01*
X153458333Y-136529233D01*
X154982334Y-136444567D02*
X154813000Y-136529233D01*
X154474334Y-136529233D01*
X154305000Y-136444567D01*
X154220334Y-136275233D01*
X154220334Y-135597900D01*
X154305000Y-135428567D01*
X154474334Y-135343900D01*
X154813000Y-135343900D01*
X154982334Y-135428567D01*
X155067000Y-135597900D01*
X155067000Y-135767233D01*
X154220334Y-135936567D01*
X155829000Y-135343900D02*
X155829000Y-136529233D01*
X155829000Y-135513233D02*
X155913667Y-135428567D01*
X156083000Y-135343900D01*
X156337000Y-135343900D01*
X156506334Y-135428567D01*
X156591000Y-135597900D01*
X156591000Y-136529233D01*
X157353001Y-136444567D02*
X157522334Y-136529233D01*
X157861001Y-136529233D01*
X158030334Y-136444567D01*
X158115001Y-136275233D01*
X158115001Y-136190567D01*
X158030334Y-136021233D01*
X157861001Y-135936567D01*
X157607001Y-135936567D01*
X157437667Y-135851900D01*
X157353001Y-135682567D01*
X157353001Y-135597900D01*
X157437667Y-135428567D01*
X157607001Y-135343900D01*
X157861001Y-135343900D01*
X158030334Y-135428567D01*
X158877000Y-136529233D02*
X158877000Y-135343900D01*
X158877000Y-134751233D02*
X158792334Y-134835900D01*
X158877000Y-134920567D01*
X158961667Y-134835900D01*
X158877000Y-134751233D01*
X158877000Y-134920567D01*
X159977667Y-136529233D02*
X159808334Y-136444567D01*
X159723667Y-136359900D01*
X159639001Y-136190567D01*
X159639001Y-135682567D01*
X159723667Y-135513233D01*
X159808334Y-135428567D01*
X159977667Y-135343900D01*
X160231667Y-135343900D01*
X160401001Y-135428567D01*
X160485667Y-135513233D01*
X160570334Y-135682567D01*
X160570334Y-136190567D01*
X160485667Y-136359900D01*
X160401001Y-136444567D01*
X160231667Y-136529233D01*
X159977667Y-136529233D01*
X161332334Y-135343900D02*
X161332334Y-136529233D01*
X161332334Y-135513233D02*
X161417001Y-135428567D01*
X161586334Y-135343900D01*
X161840334Y-135343900D01*
X162009668Y-135428567D01*
X162094334Y-135597900D01*
X162094334Y-136529233D01*
X162856335Y-136444567D02*
X163025668Y-136529233D01*
X163364335Y-136529233D01*
X163533668Y-136444567D01*
X163618335Y-136275233D01*
X163618335Y-136190567D01*
X163533668Y-136021233D01*
X163364335Y-135936567D01*
X163110335Y-135936567D01*
X162941001Y-135851900D01*
X162856335Y-135682567D01*
X162856335Y-135597900D01*
X162941001Y-135428567D01*
X163110335Y-135343900D01*
X163364335Y-135343900D01*
X163533668Y-135428567D01*
X164380334Y-136359900D02*
X164465001Y-136444567D01*
X164380334Y-136529233D01*
X164295668Y-136444567D01*
X164380334Y-136359900D01*
X164380334Y-136529233D01*
X164380334Y-135428567D02*
X164465001Y-135513233D01*
X164380334Y-135597900D01*
X164295668Y-135513233D01*
X164380334Y-135428567D01*
X164380334Y-135597900D01*
X149860001Y-137790767D02*
X149944667Y-137706100D01*
X150114001Y-137621433D01*
X150537334Y-137621433D01*
X150706667Y-137706100D01*
X150791334Y-137790767D01*
X150876001Y-137960100D01*
X150876001Y-138129433D01*
X150791334Y-138383433D01*
X149775334Y-139399433D01*
X150876001Y-139399433D01*
X151638000Y-139230100D02*
X151722667Y-139314767D01*
X151638000Y-139399433D01*
X151553334Y-139314767D01*
X151638000Y-139230100D01*
X151638000Y-139399433D01*
X152315334Y-137621433D02*
X153416001Y-137621433D01*
X152823334Y-138298767D01*
X153077334Y-138298767D01*
X153246667Y-138383433D01*
X153331334Y-138468100D01*
X153416001Y-138637433D01*
X153416001Y-139060767D01*
X153331334Y-139230100D01*
X153246667Y-139314767D01*
X153077334Y-139399433D01*
X152569334Y-139399433D01*
X152400001Y-139314767D01*
X152315334Y-139230100D01*
X154516667Y-137621433D02*
X154686000Y-137621433D01*
X154855334Y-137706100D01*
X154940000Y-137790767D01*
X155024667Y-137960100D01*
X155109334Y-138298767D01*
X155109334Y-138722100D01*
X155024667Y-139060767D01*
X154940000Y-139230100D01*
X154855334Y-139314767D01*
X154686000Y-139399433D01*
X154516667Y-139399433D01*
X154347334Y-139314767D01*
X154262667Y-139230100D01*
X154178000Y-139060767D01*
X154093334Y-138722100D01*
X154093334Y-138298767D01*
X154178000Y-137960100D01*
X154262667Y-137790767D01*
X154347334Y-137706100D01*
X154516667Y-137621433D01*
X155702000Y-139399433D02*
X156633333Y-138214100D01*
X155702000Y-138214100D02*
X156633333Y-139399433D01*
X158242000Y-139399433D02*
X157226000Y-139399433D01*
X157734000Y-139399433D02*
X157734000Y-137621433D01*
X157564666Y-137875433D01*
X157395333Y-138044767D01*
X157226000Y-138129433D01*
X159003999Y-139230100D02*
X159088666Y-139314767D01*
X159003999Y-139399433D01*
X158919333Y-139314767D01*
X159003999Y-139230100D01*
X159003999Y-139399433D01*
X159766000Y-137790767D02*
X159850666Y-137706100D01*
X160020000Y-137621433D01*
X160443333Y-137621433D01*
X160612666Y-137706100D01*
X160697333Y-137790767D01*
X160782000Y-137960100D01*
X160782000Y-138129433D01*
X160697333Y-138383433D01*
X159681333Y-139399433D01*
X160782000Y-139399433D01*
X161882666Y-137621433D02*
X162051999Y-137621433D01*
X162221333Y-137706100D01*
X162305999Y-137790767D01*
X162390666Y-137960100D01*
X162475333Y-138298767D01*
X162475333Y-138722100D01*
X162390666Y-139060767D01*
X162305999Y-139230100D01*
X162221333Y-139314767D01*
X162051999Y-139399433D01*
X161882666Y-139399433D01*
X161713333Y-139314767D01*
X161628666Y-139230100D01*
X161543999Y-139060767D01*
X161459333Y-138722100D01*
X161459333Y-138298767D01*
X161543999Y-137960100D01*
X161628666Y-137790767D01*
X161713333Y-137706100D01*
X161882666Y-137621433D01*
X163152666Y-137621433D02*
X163152666Y-137960100D01*
X163829999Y-137621433D02*
X163829999Y-137960100D01*
X147404668Y-140491633D02*
X146558001Y-140491633D01*
X146473335Y-141338300D01*
X146558001Y-141253633D01*
X146727335Y-141168967D01*
X147150668Y-141168967D01*
X147320001Y-141253633D01*
X147404668Y-141338300D01*
X147489335Y-141507633D01*
X147489335Y-141930967D01*
X147404668Y-142100300D01*
X147320001Y-142184967D01*
X147150668Y-142269633D01*
X146727335Y-142269633D01*
X146558001Y-142184967D01*
X146473335Y-142100300D01*
X148505334Y-141253633D02*
X148336001Y-141168967D01*
X148251334Y-141084300D01*
X148166668Y-140914967D01*
X148166668Y-140830300D01*
X148251334Y-140660967D01*
X148336001Y-140576300D01*
X148505334Y-140491633D01*
X148844001Y-140491633D01*
X149013334Y-140576300D01*
X149098001Y-140660967D01*
X149182668Y-140830300D01*
X149182668Y-140914967D01*
X149098001Y-141084300D01*
X149013334Y-141168967D01*
X148844001Y-141253633D01*
X148505334Y-141253633D01*
X148336001Y-141338300D01*
X148251334Y-141422967D01*
X148166668Y-141592300D01*
X148166668Y-141930967D01*
X148251334Y-142100300D01*
X148336001Y-142184967D01*
X148505334Y-142269633D01*
X148844001Y-142269633D01*
X149013334Y-142184967D01*
X149098001Y-142100300D01*
X149182668Y-141930967D01*
X149182668Y-141592300D01*
X149098001Y-141422967D01*
X149013334Y-141338300D01*
X148844001Y-141253633D01*
X149944667Y-142100300D02*
X150029334Y-142184967D01*
X149944667Y-142269633D01*
X149860001Y-142184967D01*
X149944667Y-142100300D01*
X149944667Y-142269633D01*
X151553334Y-141084300D02*
X151553334Y-142269633D01*
X151130001Y-140406967D02*
X150706668Y-141676967D01*
X151807334Y-141676967D01*
X152400001Y-140660967D02*
X152484667Y-140576300D01*
X152654001Y-140491633D01*
X153077334Y-140491633D01*
X153246667Y-140576300D01*
X153331334Y-140660967D01*
X153416001Y-140830300D01*
X153416001Y-140999633D01*
X153331334Y-141253633D01*
X152315334Y-142269633D01*
X153416001Y-142269633D01*
X154008667Y-142269633D02*
X154940000Y-141084300D01*
X154008667Y-141084300D02*
X154940000Y-142269633D01*
X155448000Y-140491633D02*
X156548667Y-140491633D01*
X155956000Y-141168967D01*
X156210000Y-141168967D01*
X156379333Y-141253633D01*
X156464000Y-141338300D01*
X156548667Y-141507633D01*
X156548667Y-141930967D01*
X156464000Y-142100300D01*
X156379333Y-142184967D01*
X156210000Y-142269633D01*
X155702000Y-142269633D01*
X155532667Y-142184967D01*
X155448000Y-142100300D01*
X157649333Y-140491633D02*
X157818666Y-140491633D01*
X157988000Y-140576300D01*
X158072666Y-140660967D01*
X158157333Y-140830300D01*
X158242000Y-141168967D01*
X158242000Y-141592300D01*
X158157333Y-141930967D01*
X158072666Y-142100300D01*
X157988000Y-142184967D01*
X157818666Y-142269633D01*
X157649333Y-142269633D01*
X157480000Y-142184967D01*
X157395333Y-142100300D01*
X157310666Y-141930967D01*
X157226000Y-141592300D01*
X157226000Y-141168967D01*
X157310666Y-140830300D01*
X157395333Y-140660967D01*
X157480000Y-140576300D01*
X157649333Y-140491633D01*
X159003999Y-142100300D02*
X159088666Y-142184967D01*
X159003999Y-142269633D01*
X158919333Y-142184967D01*
X159003999Y-142100300D01*
X159003999Y-142269633D01*
X160612666Y-141084300D02*
X160612666Y-142269633D01*
X160189333Y-140406967D02*
X159766000Y-141676967D01*
X160866666Y-141676967D01*
X161797999Y-141253633D02*
X161628666Y-141168967D01*
X161543999Y-141084300D01*
X161459333Y-140914967D01*
X161459333Y-140830300D01*
X161543999Y-140660967D01*
X161628666Y-140576300D01*
X161797999Y-140491633D01*
X162136666Y-140491633D01*
X162305999Y-140576300D01*
X162390666Y-140660967D01*
X162475333Y-140830300D01*
X162475333Y-140914967D01*
X162390666Y-141084300D01*
X162305999Y-141168967D01*
X162136666Y-141253633D01*
X161797999Y-141253633D01*
X161628666Y-141338300D01*
X161543999Y-141422967D01*
X161459333Y-141592300D01*
X161459333Y-141930967D01*
X161543999Y-142100300D01*
X161628666Y-142184967D01*
X161797999Y-142269633D01*
X162136666Y-142269633D01*
X162305999Y-142184967D01*
X162390666Y-142100300D01*
X162475333Y-141930967D01*
X162475333Y-141592300D01*
X162390666Y-141422967D01*
X162305999Y-141338300D01*
X162136666Y-141253633D01*
X163237332Y-142269633D02*
X163237332Y-141084300D01*
X163237332Y-141253633D02*
X163321999Y-141168967D01*
X163491332Y-141084300D01*
X163745332Y-141084300D01*
X163914666Y-141168967D01*
X163999332Y-141338300D01*
X163999332Y-142269633D01*
X163999332Y-141338300D02*
X164083999Y-141168967D01*
X164253332Y-141084300D01*
X164507332Y-141084300D01*
X164676666Y-141168967D01*
X164761332Y-141338300D01*
X164761332Y-142269633D01*
X165607999Y-142269633D02*
X165607999Y-141084300D01*
X165607999Y-141253633D02*
X165692666Y-141168967D01*
X165861999Y-141084300D01*
X166115999Y-141084300D01*
X166285333Y-141168967D01*
X166369999Y-141338300D01*
X166369999Y-142269633D01*
X166369999Y-141338300D02*
X166454666Y-141168967D01*
X166623999Y-141084300D01*
X166877999Y-141084300D01*
X167047333Y-141168967D01*
X167131999Y-141338300D01*
X167131999Y-142269633D01*
D13*
X127000000Y-96520000D02*
X127000000Y-127000000D01*
X185420000Y-96520000D02*
X127000000Y-96520000D01*
X185420000Y-127000000D02*
X185420000Y-96520000D01*
X127000000Y-127000000D02*
X185420000Y-127000000D01*
X148971000Y-111252000D02*
X148971000Y-108204000D01*
X149225000Y-111506000D02*
X150241000Y-111506000D01*
X149225000Y-107950000D02*
X150241000Y-107950000D01*
X150495000Y-108204000D02*
X150495000Y-111252000D01*
X150241000Y-111506000D02*
G75*
G03X150495000Y-111252000I0J254000D01*
G01*
X150495000Y-108204000D02*
G75*
G03X150241000Y-107950000I-254000J0D01*
G01*
X149225000Y-107950000D02*
G75*
G03X148971000Y-108204000I0J-254000D01*
G01*
X148971000Y-111252000D02*
G75*
G03X149225000Y-111506000I254000J0D01*
G01*
X146939000Y-111125000D02*
X146939000Y-110109000D01*
X145415000Y-111125000D02*
X145415000Y-110109000D01*
X148717000Y-111125000D02*
X148717000Y-110109000D01*
X147193000Y-111125000D02*
X147193000Y-110109000D01*
D16*
X146790210Y-103124000D02*
G75*
G03X146790210Y-103124000I-359210J0D01*
G01*
X146790210Y-103124000D02*
G75*
G03X146790210Y-103124000I-359210J0D01*
G01*
X143234210Y-103124000D02*
G75*
G03X143234210Y-103124000I-359210J0D01*
G01*
X143234210Y-103124000D02*
G75*
G03X143234210Y-103124000I-359210J0D01*
G01*
X139678210Y-103124000D02*
G75*
G03X139678210Y-103124000I-359210J0D01*
G01*
X139678210Y-103124000D02*
G75*
G03X139678210Y-103124000I-359210J0D01*
G01*
D13*
X148125000Y-104465000D02*
X137625000Y-104465000D01*
X137625000Y-96465000D02*
X148125000Y-96465000D01*
X148125000Y-104465000D02*
X148125000Y-96465000D01*
X137625000Y-104465000D02*
X137625000Y-96465000D01*
X154305000Y-109220000D02*
X154305000Y-110744000D01*
X154305000Y-107696000D02*
X154305000Y-109220000D01*
X155575000Y-109220000D02*
X155575000Y-110744000D01*
X156845000Y-109220000D02*
X156845000Y-110744000D01*
X158115000Y-109220000D02*
X158115000Y-110744000D01*
X159385000Y-109220000D02*
X159385000Y-110744000D01*
X160655000Y-109220000D02*
X160655000Y-110744000D01*
X161925000Y-109220000D02*
X161925000Y-110744000D01*
X163195000Y-109220000D02*
X163195000Y-110744000D01*
X164465000Y-109220000D02*
X164465000Y-110744000D01*
X155575000Y-107696000D02*
X155575000Y-109220000D01*
X156845000Y-107696000D02*
X156845000Y-109220000D01*
X158115000Y-107696000D02*
X158115000Y-109220000D01*
X159385000Y-107696000D02*
X159385000Y-109220000D01*
X160655000Y-107696000D02*
X160655000Y-109220000D01*
X161925000Y-107696000D02*
X161925000Y-109220000D01*
X163195000Y-107696000D02*
X163195000Y-109220000D01*
X164465000Y-107696000D02*
X164465000Y-109220000D01*
X164465000Y-110744000D02*
X164338000Y-110744000D01*
X164592000Y-110744000D02*
X164465000Y-110744000D01*
X163195000Y-110744000D02*
X163068000Y-110744000D01*
X163322000Y-110744000D02*
X163195000Y-110744000D01*
X161925000Y-110744000D02*
X161798000Y-110744000D01*
X162052000Y-110744000D02*
X161925000Y-110744000D01*
X160655000Y-110744000D02*
X160528000Y-110744000D01*
X160782000Y-110744000D02*
X160655000Y-110744000D01*
X159385000Y-110744000D02*
X159258000Y-110744000D01*
X159512000Y-110744000D02*
X159385000Y-110744000D01*
X158115000Y-110744000D02*
X157988000Y-110744000D01*
X158242000Y-110744000D02*
X158115000Y-110744000D01*
X156845000Y-110744000D02*
X156718000Y-110744000D01*
X156972000Y-110744000D02*
X156845000Y-110744000D01*
X155575000Y-110744000D02*
X155448000Y-110744000D01*
X155702000Y-110744000D02*
X155575000Y-110744000D01*
X154432000Y-110744000D02*
X154178000Y-110744000D01*
X154305000Y-107696000D02*
X154178000Y-107696000D01*
X154432000Y-107696000D02*
X154305000Y-107696000D01*
X155575000Y-107696000D02*
X155448000Y-107696000D01*
X155702000Y-107696000D02*
X155575000Y-107696000D01*
X156845000Y-107696000D02*
X156718000Y-107696000D01*
X156972000Y-107696000D02*
X156845000Y-107696000D01*
X158115000Y-107696000D02*
X157988000Y-107696000D01*
X158242000Y-107696000D02*
X158115000Y-107696000D01*
X159385000Y-107696000D02*
X159258000Y-107696000D01*
X159512000Y-107696000D02*
X159385000Y-107696000D01*
X160655000Y-107696000D02*
X160528000Y-107696000D01*
X160782000Y-107696000D02*
X160655000Y-107696000D01*
X161925000Y-107696000D02*
X161798000Y-107696000D01*
X162052000Y-107696000D02*
X161925000Y-107696000D01*
X163195000Y-107696000D02*
X163068000Y-107696000D01*
X163322000Y-107696000D02*
X163195000Y-107696000D01*
X164465000Y-107696000D02*
X164338000Y-107696000D01*
X164592000Y-107696000D02*
X164465000Y-107696000D01*
X154305000Y-109220000D02*
X153035000Y-109220000D01*
X155575000Y-109220000D02*
X154305000Y-109220000D01*
X156845000Y-109220000D02*
X155575000Y-109220000D01*
X158115000Y-109220000D02*
X156845000Y-109220000D01*
X159385000Y-109220000D02*
X158115000Y-109220000D01*
X160655000Y-109220000D02*
X159385000Y-109220000D01*
X161925000Y-109220000D02*
X160655000Y-109220000D01*
X163195000Y-109220000D02*
X161925000Y-109220000D01*
X164465000Y-109220000D02*
X163195000Y-109220000D01*
X165735000Y-109220000D02*
X164465000Y-109220000D01*
X153035000Y-107696000D02*
X153162000Y-107696000D01*
X153035000Y-109220000D02*
X153035000Y-107696000D01*
X153035000Y-110744000D02*
X153035000Y-109220000D01*
X153162000Y-110744000D02*
X153035000Y-110744000D01*
X165735000Y-107696000D02*
X165608000Y-107696000D01*
X165608000Y-110744000D02*
X165735000Y-110744000D01*
X178308000Y-110744000D02*
X178435000Y-110744000D01*
X178435000Y-110744000D02*
X178435000Y-109220000D01*
X178435000Y-109220000D02*
X178435000Y-107696000D01*
X178435000Y-107696000D02*
X178308000Y-107696000D01*
X165862000Y-110744000D02*
X165735000Y-110744000D01*
X165735000Y-110744000D02*
X165735000Y-109220000D01*
X165735000Y-109220000D02*
X165735000Y-107696000D01*
X165735000Y-107696000D02*
X165862000Y-107696000D01*
X178435000Y-109220000D02*
X177165000Y-109220000D01*
X177165000Y-109220000D02*
X175895000Y-109220000D01*
X175895000Y-109220000D02*
X174625000Y-109220000D01*
X174625000Y-109220000D02*
X173355000Y-109220000D01*
X173355000Y-109220000D02*
X172085000Y-109220000D01*
X172085000Y-109220000D02*
X170815000Y-109220000D01*
X170815000Y-109220000D02*
X169545000Y-109220000D01*
X169545000Y-109220000D02*
X168275000Y-109220000D01*
X168275000Y-109220000D02*
X167005000Y-109220000D01*
X167005000Y-109220000D02*
X165735000Y-109220000D01*
X177292000Y-107696000D02*
X177165000Y-107696000D01*
X177165000Y-107696000D02*
X177038000Y-107696000D01*
X176022000Y-107696000D02*
X175895000Y-107696000D01*
X175895000Y-107696000D02*
X175768000Y-107696000D01*
X174752000Y-107696000D02*
X174625000Y-107696000D01*
X174625000Y-107696000D02*
X174498000Y-107696000D01*
X173482000Y-107696000D02*
X173355000Y-107696000D01*
X173355000Y-107696000D02*
X173228000Y-107696000D01*
X172212000Y-107696000D02*
X172085000Y-107696000D01*
X172085000Y-107696000D02*
X171958000Y-107696000D01*
X170942000Y-107696000D02*
X170815000Y-107696000D01*
X170815000Y-107696000D02*
X170688000Y-107696000D01*
X169672000Y-107696000D02*
X169545000Y-107696000D01*
X169545000Y-107696000D02*
X169418000Y-107696000D01*
X168402000Y-107696000D02*
X168275000Y-107696000D01*
X168275000Y-107696000D02*
X168148000Y-107696000D01*
X167132000Y-107696000D02*
X167005000Y-107696000D01*
X167005000Y-107696000D02*
X166878000Y-107696000D01*
X167132000Y-110744000D02*
X166878000Y-110744000D01*
X168402000Y-110744000D02*
X168275000Y-110744000D01*
X168275000Y-110744000D02*
X168148000Y-110744000D01*
X169672000Y-110744000D02*
X169545000Y-110744000D01*
X169545000Y-110744000D02*
X169418000Y-110744000D01*
X170942000Y-110744000D02*
X170815000Y-110744000D01*
X170815000Y-110744000D02*
X170688000Y-110744000D01*
X172212000Y-110744000D02*
X172085000Y-110744000D01*
X172085000Y-110744000D02*
X171958000Y-110744000D01*
X173482000Y-110744000D02*
X173355000Y-110744000D01*
X173355000Y-110744000D02*
X173228000Y-110744000D01*
X174752000Y-110744000D02*
X174625000Y-110744000D01*
X174625000Y-110744000D02*
X174498000Y-110744000D01*
X176022000Y-110744000D02*
X175895000Y-110744000D01*
X175895000Y-110744000D02*
X175768000Y-110744000D01*
X177292000Y-110744000D02*
X177165000Y-110744000D01*
X177165000Y-110744000D02*
X177038000Y-110744000D01*
X177165000Y-107696000D02*
X177165000Y-109220000D01*
X175895000Y-107696000D02*
X175895000Y-109220000D01*
X174625000Y-107696000D02*
X174625000Y-109220000D01*
X173355000Y-107696000D02*
X173355000Y-109220000D01*
X172085000Y-107696000D02*
X172085000Y-109220000D01*
X170815000Y-107696000D02*
X170815000Y-109220000D01*
X169545000Y-107696000D02*
X169545000Y-109220000D01*
X168275000Y-107696000D02*
X168275000Y-109220000D01*
X177165000Y-109220000D02*
X177165000Y-110744000D01*
X175895000Y-109220000D02*
X175895000Y-110744000D01*
X174625000Y-109220000D02*
X174625000Y-110744000D01*
X173355000Y-109220000D02*
X173355000Y-110744000D01*
X172085000Y-109220000D02*
X172085000Y-110744000D01*
X170815000Y-109220000D02*
X170815000Y-110744000D01*
X169545000Y-109220000D02*
X169545000Y-110744000D01*
X168275000Y-109220000D02*
X168275000Y-110744000D01*
X167005000Y-107696000D02*
X167005000Y-109220000D01*
X167005000Y-109220000D02*
X167005000Y-110744000D01*
X154305000Y-100330000D02*
X154305000Y-101854000D01*
X154305000Y-98806000D02*
X154305000Y-100330000D01*
X155575000Y-100330000D02*
X155575000Y-101854000D01*
X156845000Y-100330000D02*
X156845000Y-101854000D01*
X158115000Y-100330000D02*
X158115000Y-101854000D01*
X159385000Y-100330000D02*
X159385000Y-101854000D01*
X160655000Y-100330000D02*
X160655000Y-101854000D01*
X161925000Y-100330000D02*
X161925000Y-101854000D01*
X163195000Y-100330000D02*
X163195000Y-101854000D01*
X164465000Y-100330000D02*
X164465000Y-101854000D01*
X155575000Y-98806000D02*
X155575000Y-100330000D01*
X156845000Y-98806000D02*
X156845000Y-100330000D01*
X158115000Y-98806000D02*
X158115000Y-100330000D01*
X159385000Y-98806000D02*
X159385000Y-100330000D01*
X160655000Y-98806000D02*
X160655000Y-100330000D01*
X161925000Y-98806000D02*
X161925000Y-100330000D01*
X163195000Y-98806000D02*
X163195000Y-100330000D01*
X164465000Y-98806000D02*
X164465000Y-100330000D01*
X164465000Y-101854000D02*
X164338000Y-101854000D01*
X164592000Y-101854000D02*
X164465000Y-101854000D01*
X163195000Y-101854000D02*
X163068000Y-101854000D01*
X163322000Y-101854000D02*
X163195000Y-101854000D01*
X161925000Y-101854000D02*
X161798000Y-101854000D01*
X162052000Y-101854000D02*
X161925000Y-101854000D01*
X160655000Y-101854000D02*
X160528000Y-101854000D01*
X160782000Y-101854000D02*
X160655000Y-101854000D01*
X159385000Y-101854000D02*
X159258000Y-101854000D01*
X159512000Y-101854000D02*
X159385000Y-101854000D01*
X158115000Y-101854000D02*
X157988000Y-101854000D01*
X158242000Y-101854000D02*
X158115000Y-101854000D01*
X156845000Y-101854000D02*
X156718000Y-101854000D01*
X156972000Y-101854000D02*
X156845000Y-101854000D01*
X155575000Y-101854000D02*
X155448000Y-101854000D01*
X155702000Y-101854000D02*
X155575000Y-101854000D01*
X154432000Y-101854000D02*
X154178000Y-101854000D01*
X154305000Y-98806000D02*
X154178000Y-98806000D01*
X154432000Y-98806000D02*
X154305000Y-98806000D01*
X155575000Y-98806000D02*
X155448000Y-98806000D01*
X155702000Y-98806000D02*
X155575000Y-98806000D01*
X156845000Y-98806000D02*
X156718000Y-98806000D01*
X156972000Y-98806000D02*
X156845000Y-98806000D01*
X158115000Y-98806000D02*
X157988000Y-98806000D01*
X158242000Y-98806000D02*
X158115000Y-98806000D01*
X159385000Y-98806000D02*
X159258000Y-98806000D01*
X159512000Y-98806000D02*
X159385000Y-98806000D01*
X160655000Y-98806000D02*
X160528000Y-98806000D01*
X160782000Y-98806000D02*
X160655000Y-98806000D01*
X161925000Y-98806000D02*
X161798000Y-98806000D01*
X162052000Y-98806000D02*
X161925000Y-98806000D01*
X163195000Y-98806000D02*
X163068000Y-98806000D01*
X163322000Y-98806000D02*
X163195000Y-98806000D01*
X164465000Y-98806000D02*
X164338000Y-98806000D01*
X164592000Y-98806000D02*
X164465000Y-98806000D01*
X154305000Y-100330000D02*
X153035000Y-100330000D01*
X155575000Y-100330000D02*
X154305000Y-100330000D01*
X156845000Y-100330000D02*
X155575000Y-100330000D01*
X158115000Y-100330000D02*
X156845000Y-100330000D01*
X159385000Y-100330000D02*
X158115000Y-100330000D01*
X160655000Y-100330000D02*
X159385000Y-100330000D01*
X161925000Y-100330000D02*
X160655000Y-100330000D01*
X163195000Y-100330000D02*
X161925000Y-100330000D01*
X164465000Y-100330000D02*
X163195000Y-100330000D01*
X165735000Y-100330000D02*
X164465000Y-100330000D01*
X153035000Y-98806000D02*
X153162000Y-98806000D01*
X153035000Y-100330000D02*
X153035000Y-98806000D01*
X153035000Y-101854000D02*
X153035000Y-100330000D01*
X153162000Y-101854000D02*
X153035000Y-101854000D01*
X165735000Y-98806000D02*
X165608000Y-98806000D01*
X165608000Y-101854000D02*
X165735000Y-101854000D01*
D16*
X153924000Y-99441000D02*
X153924000Y-99949000D01*
X153924000Y-99949000D02*
X153416000Y-99949000D01*
X153416000Y-99441000D02*
X153416000Y-99949000D01*
X153924000Y-99441000D02*
X153416000Y-99441000D01*
X155194000Y-99441000D02*
X155194000Y-99949000D01*
X155194000Y-99949000D02*
X154686000Y-99949000D01*
X154686000Y-99441000D02*
X154686000Y-99949000D01*
X155194000Y-99441000D02*
X154686000Y-99441000D01*
X156464000Y-99441000D02*
X156464000Y-99949000D01*
X156464000Y-99949000D02*
X155956000Y-99949000D01*
X155956000Y-99441000D02*
X155956000Y-99949000D01*
X156464000Y-99441000D02*
X155956000Y-99441000D01*
X157734000Y-99441000D02*
X157734000Y-99949000D01*
X157734000Y-99949000D02*
X157226000Y-99949000D01*
X157226000Y-99441000D02*
X157226000Y-99949000D01*
X157734000Y-99441000D02*
X157226000Y-99441000D01*
X159004000Y-99441000D02*
X159004000Y-99949000D01*
X159004000Y-99949000D02*
X158496000Y-99949000D01*
X158496000Y-99441000D02*
X158496000Y-99949000D01*
X159004000Y-99441000D02*
X158496000Y-99441000D01*
X160274000Y-99441000D02*
X160274000Y-99949000D01*
X160274000Y-99949000D02*
X159766000Y-99949000D01*
X159766000Y-99441000D02*
X159766000Y-99949000D01*
X160274000Y-99441000D02*
X159766000Y-99441000D01*
X161544000Y-99441000D02*
X161544000Y-99949000D01*
X161544000Y-99949000D02*
X161036000Y-99949000D01*
X161036000Y-99441000D02*
X161036000Y-99949000D01*
X161544000Y-99441000D02*
X161036000Y-99441000D01*
X162814000Y-99441000D02*
X162814000Y-99949000D01*
X162814000Y-99949000D02*
X162306000Y-99949000D01*
X162306000Y-99441000D02*
X162306000Y-99949000D01*
X162814000Y-99441000D02*
X162306000Y-99441000D01*
X164084000Y-99441000D02*
X164084000Y-99949000D01*
X164084000Y-99949000D02*
X163576000Y-99949000D01*
X163576000Y-99441000D02*
X163576000Y-99949000D01*
X164084000Y-99441000D02*
X163576000Y-99441000D01*
X165354000Y-99441000D02*
X165354000Y-99949000D01*
X165354000Y-99949000D02*
X164846000Y-99949000D01*
X164846000Y-99441000D02*
X164846000Y-99949000D01*
X165354000Y-99441000D02*
X164846000Y-99441000D01*
X153924000Y-100711000D02*
X153924000Y-101219000D01*
X153924000Y-101219000D02*
X153416000Y-101219000D01*
X153416000Y-100711000D02*
X153416000Y-101219000D01*
X153924000Y-100711000D02*
X153416000Y-100711000D01*
X155194000Y-100711000D02*
X155194000Y-101219000D01*
X155194000Y-101219000D02*
X154686000Y-101219000D01*
X154686000Y-100711000D02*
X154686000Y-101219000D01*
X155194000Y-100711000D02*
X154686000Y-100711000D01*
X156464000Y-100711000D02*
X156464000Y-101219000D01*
X156464000Y-101219000D02*
X155956000Y-101219000D01*
X155956000Y-100711000D02*
X155956000Y-101219000D01*
X156464000Y-100711000D02*
X155956000Y-100711000D01*
X157734000Y-100711000D02*
X157734000Y-101219000D01*
X157734000Y-101219000D02*
X157226000Y-101219000D01*
X157226000Y-100711000D02*
X157226000Y-101219000D01*
X157734000Y-100711000D02*
X157226000Y-100711000D01*
X159004000Y-100711000D02*
X159004000Y-101219000D01*
X159004000Y-101219000D02*
X158496000Y-101219000D01*
X158496000Y-100711000D02*
X158496000Y-101219000D01*
X159004000Y-100711000D02*
X158496000Y-100711000D01*
X160274000Y-100711000D02*
X160274000Y-101219000D01*
X160274000Y-101219000D02*
X159766000Y-101219000D01*
X159766000Y-100711000D02*
X159766000Y-101219000D01*
X160274000Y-100711000D02*
X159766000Y-100711000D01*
X161544000Y-100711000D02*
X161544000Y-101219000D01*
X161544000Y-101219000D02*
X161036000Y-101219000D01*
X161036000Y-100711000D02*
X161036000Y-101219000D01*
X161544000Y-100711000D02*
X161036000Y-100711000D01*
X162814000Y-100711000D02*
X162814000Y-101219000D01*
X162814000Y-101219000D02*
X162306000Y-101219000D01*
X162306000Y-100711000D02*
X162306000Y-101219000D01*
X162814000Y-100711000D02*
X162306000Y-100711000D01*
X164084000Y-100711000D02*
X164084000Y-101219000D01*
X164084000Y-101219000D02*
X163576000Y-101219000D01*
X163576000Y-100711000D02*
X163576000Y-101219000D01*
X164084000Y-100711000D02*
X163576000Y-100711000D01*
X165354000Y-100711000D02*
X165354000Y-101219000D01*
X165354000Y-101219000D02*
X164846000Y-101219000D01*
X164846000Y-100711000D02*
X164846000Y-101219000D01*
X165354000Y-100711000D02*
X164846000Y-100711000D01*
X178054000Y-100711000D02*
X177546000Y-100711000D01*
X177546000Y-100711000D02*
X177546000Y-101219000D01*
X178054000Y-101219000D02*
X177546000Y-101219000D01*
X178054000Y-100711000D02*
X178054000Y-101219000D01*
X176784000Y-100711000D02*
X176276000Y-100711000D01*
X176276000Y-100711000D02*
X176276000Y-101219000D01*
X176784000Y-101219000D02*
X176276000Y-101219000D01*
X176784000Y-100711000D02*
X176784000Y-101219000D01*
X175514000Y-100711000D02*
X175006000Y-100711000D01*
X175006000Y-100711000D02*
X175006000Y-101219000D01*
X175514000Y-101219000D02*
X175006000Y-101219000D01*
X175514000Y-100711000D02*
X175514000Y-101219000D01*
X174244000Y-100711000D02*
X173736000Y-100711000D01*
X173736000Y-100711000D02*
X173736000Y-101219000D01*
X174244000Y-101219000D02*
X173736000Y-101219000D01*
X174244000Y-100711000D02*
X174244000Y-101219000D01*
X172974000Y-100711000D02*
X172466000Y-100711000D01*
X172466000Y-100711000D02*
X172466000Y-101219000D01*
X172974000Y-101219000D02*
X172466000Y-101219000D01*
X172974000Y-100711000D02*
X172974000Y-101219000D01*
X171704000Y-100711000D02*
X171196000Y-100711000D01*
X171196000Y-100711000D02*
X171196000Y-101219000D01*
X171704000Y-101219000D02*
X171196000Y-101219000D01*
X171704000Y-100711000D02*
X171704000Y-101219000D01*
X170434000Y-100711000D02*
X169926000Y-100711000D01*
X169926000Y-100711000D02*
X169926000Y-101219000D01*
X170434000Y-101219000D02*
X169926000Y-101219000D01*
X170434000Y-100711000D02*
X170434000Y-101219000D01*
X169164000Y-100711000D02*
X168656000Y-100711000D01*
X168656000Y-100711000D02*
X168656000Y-101219000D01*
X169164000Y-101219000D02*
X168656000Y-101219000D01*
X169164000Y-100711000D02*
X169164000Y-101219000D01*
X167894000Y-100711000D02*
X167386000Y-100711000D01*
X167386000Y-100711000D02*
X167386000Y-101219000D01*
X167894000Y-101219000D02*
X167386000Y-101219000D01*
X167894000Y-100711000D02*
X167894000Y-101219000D01*
X166624000Y-100711000D02*
X166116000Y-100711000D01*
X166116000Y-100711000D02*
X166116000Y-101219000D01*
X166624000Y-101219000D02*
X166116000Y-101219000D01*
X166624000Y-100711000D02*
X166624000Y-101219000D01*
X178054000Y-99441000D02*
X177546000Y-99441000D01*
X177546000Y-99441000D02*
X177546000Y-99949000D01*
X178054000Y-99949000D02*
X177546000Y-99949000D01*
X178054000Y-99441000D02*
X178054000Y-99949000D01*
X176784000Y-99441000D02*
X176276000Y-99441000D01*
X176276000Y-99441000D02*
X176276000Y-99949000D01*
X176784000Y-99949000D02*
X176276000Y-99949000D01*
X176784000Y-99441000D02*
X176784000Y-99949000D01*
X175514000Y-99441000D02*
X175006000Y-99441000D01*
X175006000Y-99441000D02*
X175006000Y-99949000D01*
X175514000Y-99949000D02*
X175006000Y-99949000D01*
X175514000Y-99441000D02*
X175514000Y-99949000D01*
X174244000Y-99441000D02*
X173736000Y-99441000D01*
X173736000Y-99441000D02*
X173736000Y-99949000D01*
X174244000Y-99949000D02*
X173736000Y-99949000D01*
X174244000Y-99441000D02*
X174244000Y-99949000D01*
X172974000Y-99441000D02*
X172466000Y-99441000D01*
X172466000Y-99441000D02*
X172466000Y-99949000D01*
X172974000Y-99949000D02*
X172466000Y-99949000D01*
X172974000Y-99441000D02*
X172974000Y-99949000D01*
X171704000Y-99441000D02*
X171196000Y-99441000D01*
X171196000Y-99441000D02*
X171196000Y-99949000D01*
X171704000Y-99949000D02*
X171196000Y-99949000D01*
X171704000Y-99441000D02*
X171704000Y-99949000D01*
X170434000Y-99441000D02*
X169926000Y-99441000D01*
X169926000Y-99441000D02*
X169926000Y-99949000D01*
X170434000Y-99949000D02*
X169926000Y-99949000D01*
X170434000Y-99441000D02*
X170434000Y-99949000D01*
X169164000Y-99441000D02*
X168656000Y-99441000D01*
X168656000Y-99441000D02*
X168656000Y-99949000D01*
X169164000Y-99949000D02*
X168656000Y-99949000D01*
X169164000Y-99441000D02*
X169164000Y-99949000D01*
X167894000Y-99441000D02*
X167386000Y-99441000D01*
X167386000Y-99441000D02*
X167386000Y-99949000D01*
X167894000Y-99949000D02*
X167386000Y-99949000D01*
X167894000Y-99441000D02*
X167894000Y-99949000D01*
X166624000Y-99441000D02*
X166116000Y-99441000D01*
X166116000Y-99441000D02*
X166116000Y-99949000D01*
X166624000Y-99949000D02*
X166116000Y-99949000D01*
X166624000Y-99441000D02*
X166624000Y-99949000D01*
D13*
X178308000Y-101854000D02*
X178435000Y-101854000D01*
X178435000Y-101854000D02*
X178435000Y-100330000D01*
X178435000Y-100330000D02*
X178435000Y-98806000D01*
X178435000Y-98806000D02*
X178308000Y-98806000D01*
X165862000Y-101854000D02*
X165735000Y-101854000D01*
X165735000Y-101854000D02*
X165735000Y-100330000D01*
X165735000Y-100330000D02*
X165735000Y-98806000D01*
X165735000Y-98806000D02*
X165862000Y-98806000D01*
X178435000Y-100330000D02*
X177165000Y-100330000D01*
X177165000Y-100330000D02*
X175895000Y-100330000D01*
X175895000Y-100330000D02*
X174625000Y-100330000D01*
X174625000Y-100330000D02*
X173355000Y-100330000D01*
X173355000Y-100330000D02*
X172085000Y-100330000D01*
X172085000Y-100330000D02*
X170815000Y-100330000D01*
X170815000Y-100330000D02*
X169545000Y-100330000D01*
X169545000Y-100330000D02*
X168275000Y-100330000D01*
X168275000Y-100330000D02*
X167005000Y-100330000D01*
X167005000Y-100330000D02*
X165735000Y-100330000D01*
X177292000Y-98806000D02*
X177165000Y-98806000D01*
X177165000Y-98806000D02*
X177038000Y-98806000D01*
X176022000Y-98806000D02*
X175895000Y-98806000D01*
X175895000Y-98806000D02*
X175768000Y-98806000D01*
X174752000Y-98806000D02*
X174625000Y-98806000D01*
X174625000Y-98806000D02*
X174498000Y-98806000D01*
X173482000Y-98806000D02*
X173355000Y-98806000D01*
X173355000Y-98806000D02*
X173228000Y-98806000D01*
X172212000Y-98806000D02*
X172085000Y-98806000D01*
X172085000Y-98806000D02*
X171958000Y-98806000D01*
X170942000Y-98806000D02*
X170815000Y-98806000D01*
X170815000Y-98806000D02*
X170688000Y-98806000D01*
X169672000Y-98806000D02*
X169545000Y-98806000D01*
X169545000Y-98806000D02*
X169418000Y-98806000D01*
X168402000Y-98806000D02*
X168275000Y-98806000D01*
X168275000Y-98806000D02*
X168148000Y-98806000D01*
X167132000Y-98806000D02*
X167005000Y-98806000D01*
X167005000Y-98806000D02*
X166878000Y-98806000D01*
X167132000Y-101854000D02*
X166878000Y-101854000D01*
X168402000Y-101854000D02*
X168275000Y-101854000D01*
X168275000Y-101854000D02*
X168148000Y-101854000D01*
X169672000Y-101854000D02*
X169545000Y-101854000D01*
X169545000Y-101854000D02*
X169418000Y-101854000D01*
X170942000Y-101854000D02*
X170815000Y-101854000D01*
X170815000Y-101854000D02*
X170688000Y-101854000D01*
X172212000Y-101854000D02*
X172085000Y-101854000D01*
X172085000Y-101854000D02*
X171958000Y-101854000D01*
X173482000Y-101854000D02*
X173355000Y-101854000D01*
X173355000Y-101854000D02*
X173228000Y-101854000D01*
X174752000Y-101854000D02*
X174625000Y-101854000D01*
X174625000Y-101854000D02*
X174498000Y-101854000D01*
X176022000Y-101854000D02*
X175895000Y-101854000D01*
X175895000Y-101854000D02*
X175768000Y-101854000D01*
X177292000Y-101854000D02*
X177165000Y-101854000D01*
X177165000Y-101854000D02*
X177038000Y-101854000D01*
X177165000Y-98806000D02*
X177165000Y-100330000D01*
X175895000Y-98806000D02*
X175895000Y-100330000D01*
X174625000Y-98806000D02*
X174625000Y-100330000D01*
X173355000Y-98806000D02*
X173355000Y-100330000D01*
X172085000Y-98806000D02*
X172085000Y-100330000D01*
X170815000Y-98806000D02*
X170815000Y-100330000D01*
X169545000Y-98806000D02*
X169545000Y-100330000D01*
X168275000Y-98806000D02*
X168275000Y-100330000D01*
X177165000Y-100330000D02*
X177165000Y-101854000D01*
X175895000Y-100330000D02*
X175895000Y-101854000D01*
X174625000Y-100330000D02*
X174625000Y-101854000D01*
X173355000Y-100330000D02*
X173355000Y-101854000D01*
X172085000Y-100330000D02*
X172085000Y-101854000D01*
X170815000Y-100330000D02*
X170815000Y-101854000D01*
X169545000Y-100330000D02*
X169545000Y-101854000D01*
X168275000Y-100330000D02*
X168275000Y-101854000D01*
X167005000Y-98806000D02*
X167005000Y-100330000D01*
X167005000Y-100330000D02*
X167005000Y-101854000D01*
X135597900Y-97726500D02*
X135597900Y-98526600D01*
X135724900Y-97751900D02*
X135724900Y-98577400D01*
X135572500Y-98742500D02*
X135712200Y-98615500D01*
X135572500Y-97599500D02*
X135724900Y-97726500D01*
D17*
X134226300Y-97307400D02*
X134772400Y-96735900D01*
X134785100Y-96735900D02*
X134366000Y-96824800D01*
X134785100Y-96748600D02*
X134734300Y-97142300D01*
X133997700Y-96748600D02*
X133946900Y-97142300D01*
X133997700Y-96735900D02*
X133578600Y-96824800D01*
X133438900Y-97307400D02*
X133985000Y-96735900D01*
D18*
X134065000Y-97921000D02*
X134195000Y-97811000D01*
X134205000Y-97791000D02*
X134125000Y-97801000D01*
X134205000Y-97791000D02*
X134205000Y-97871000D01*
X134015000Y-97791000D02*
X134015000Y-97871000D01*
X134015000Y-97791000D02*
X133935000Y-97801000D01*
X133875000Y-97921000D02*
X134005000Y-97811000D01*
D10*
X134085000Y-98061000D02*
X134085000Y-98281000D01*
X133895000Y-98281000D02*
X133995000Y-98181000D01*
X133895000Y-98061000D02*
X134005000Y-98161000D01*
X133895000Y-98061000D02*
X133895000Y-98281000D01*
X133725000Y-98171000D02*
X134245000Y-98171000D01*
D16*
X134493000Y-97536000D02*
X135509000Y-97536000D01*
X135509000Y-97536000D02*
X135509000Y-98806000D01*
X135509000Y-98806000D02*
X134493000Y-98806000D01*
X132461000Y-97536000D02*
X132461000Y-98806000D01*
X132461000Y-98806000D02*
X133477000Y-98806000D01*
X132461000Y-97536000D02*
X133477000Y-97536000D01*
D13*
X134493000Y-99568000D02*
X133477000Y-99568000D01*
X134493000Y-101092000D02*
X133477000Y-101092000D01*
X142621000Y-107442000D02*
X143637000Y-107442000D01*
X142621000Y-105918000D02*
X143637000Y-105918000D01*
X139700000Y-113665000D02*
X138684000Y-113665000D01*
X139700000Y-115189000D02*
X138684000Y-115189000D01*
X139700000Y-105918000D02*
X138684000Y-105918000D01*
X139700000Y-107442000D02*
X138684000Y-107442000D01*
X147574000Y-113665000D02*
X146558000Y-113665000D01*
X147574000Y-115189000D02*
X146558000Y-115189000D01*
X147574000Y-107442000D02*
X146558000Y-107442000D01*
X147574000Y-108966000D02*
X146558000Y-108966000D01*
X136398000Y-107823000D02*
X136398000Y-109347000D01*
X134112000Y-107823000D02*
X134112000Y-109347000D01*
X146558000Y-107442000D02*
X147574000Y-107442000D01*
X146558000Y-105918000D02*
X147574000Y-105918000D01*
X183910000Y-124585000D02*
X184310000Y-124585000D01*
X128110000Y-124585000D02*
X128510000Y-124585000D01*
X128110000Y-117985000D02*
X128510000Y-117985000D01*
X183910000Y-117985000D02*
X184310000Y-117985000D01*
X128270000Y-118110000D02*
X130810000Y-118110000D01*
X181610000Y-118110000D02*
X184150000Y-118110000D01*
X184150000Y-124460000D02*
X184150000Y-118110000D01*
X128270000Y-118110000D02*
X128270000Y-124460000D01*
X127000000Y-116840000D02*
X128270000Y-116840000D01*
X185420000Y-125730000D02*
X181610000Y-125730000D01*
X185420000Y-125730000D02*
X185420000Y-116840000D01*
X127000000Y-116840000D02*
X127000000Y-125730000D01*
X184150000Y-116840000D02*
X184150000Y-116586000D01*
X184150000Y-116586000D02*
X182880000Y-116586000D01*
X182880000Y-116840000D02*
X182880000Y-116586000D01*
X184150000Y-116840000D02*
X185420000Y-116840000D01*
X181610000Y-116840000D02*
X182880000Y-116840000D01*
X129540000Y-116586000D02*
X128270000Y-116586000D01*
X128270000Y-116586000D02*
X128270000Y-116840000D01*
X129540000Y-116586000D02*
X129540000Y-116840000D01*
X129540000Y-116840000D02*
X130810000Y-116840000D01*
X184150000Y-124460000D02*
X181610000Y-124460000D01*
X181610000Y-124714000D02*
X184404000Y-124714000D01*
X184404000Y-124714000D02*
X184404000Y-117856000D01*
X184404000Y-117856000D02*
X181610000Y-117856000D01*
X130810000Y-117856000D02*
X128016000Y-117856000D01*
X128016000Y-117856000D02*
X128016000Y-124714000D01*
X128016000Y-124714000D02*
X130810000Y-124714000D01*
X127000000Y-125730000D02*
X130810000Y-125730000D01*
X130810000Y-124460000D02*
X128270000Y-124460000D01*
X134239000Y-114427000D02*
X134239000Y-111633000D01*
X134493000Y-114681000D02*
X136017000Y-114681000D01*
X134493000Y-111379000D02*
X136017000Y-111379000D01*
X136271000Y-111633000D02*
X136271000Y-114427000D01*
X136017000Y-114681000D02*
G75*
G03X136271000Y-114427000I0J254000D01*
G01*
X136271000Y-111633000D02*
G75*
G03X136017000Y-111379000I-254000J0D01*
G01*
X134493000Y-111379000D02*
G75*
G03X134239000Y-111633000I0J-254000D01*
G01*
X134239000Y-114427000D02*
G75*
G03X134493000Y-114681000I254000J0D01*
G01*
D19*
G36*
X182536094Y-105527158D02*
X182584273Y-105529346D01*
X182627558Y-105539306D01*
X182641742Y-105545255D01*
X182678381Y-105568793D01*
X182714932Y-105601539D01*
X182746350Y-105638440D01*
X182764900Y-105668578D01*
X182772740Y-105691940D01*
X182545990Y-105691940D01*
X182511795Y-105695007D01*
X182489738Y-105705575D01*
X182477723Y-105725698D01*
X182473655Y-105757429D01*
X182473600Y-105762874D01*
X182475375Y-105788529D01*
X182479908Y-105809358D01*
X182483329Y-105816632D01*
X182501325Y-105829853D01*
X182527871Y-105836833D01*
X182557647Y-105837563D01*
X182585330Y-105832032D01*
X182605597Y-105820232D01*
X182608483Y-105816862D01*
X182616266Y-105796757D01*
X182618816Y-105769251D01*
X182616429Y-105740480D01*
X182609406Y-105716580D01*
X182603140Y-105707180D01*
X182588456Y-105697325D01*
X182566999Y-105692725D01*
X182545990Y-105691940D01*
X182772740Y-105691940D01*
X182776973Y-105704554D01*
X182783359Y-105747649D01*
X182783700Y-105791567D01*
X182777637Y-105830010D01*
X182774617Y-105839270D01*
X182759013Y-105870768D01*
X182736825Y-105903897D01*
X182711987Y-105933440D01*
X182688432Y-105954183D01*
X182687459Y-105954830D01*
X182664144Y-105970070D01*
X182664122Y-106132240D01*
X182663844Y-106191508D01*
X182662956Y-106237414D01*
X182661349Y-106271824D01*
X182658914Y-106296609D01*
X182655544Y-106313637D01*
X182653176Y-106320555D01*
X182643540Y-106335884D01*
X182624971Y-106359138D01*
X182599670Y-106388051D01*
X182569840Y-106420357D01*
X182537686Y-106453792D01*
X182505409Y-106486090D01*
X182475213Y-106514985D01*
X182449300Y-106538212D01*
X182429874Y-106553505D01*
X182422410Y-106557864D01*
X182415664Y-106559727D01*
X182404195Y-106561363D01*
X182387117Y-106562787D01*
X182363543Y-106564012D01*
X182332586Y-106565049D01*
X182293358Y-106565914D01*
X182244974Y-106566619D01*
X182186546Y-106567178D01*
X182117186Y-106567603D01*
X182036009Y-106567909D01*
X181942128Y-106568108D01*
X181834654Y-106568213D01*
X181730895Y-106568240D01*
X181063900Y-106568240D01*
X181063900Y-106450130D01*
X181063900Y-106332020D01*
X181694659Y-106332020D01*
X182325419Y-106332020D01*
X182376649Y-106280394D01*
X182427880Y-106228768D01*
X182427858Y-106099419D01*
X182427836Y-105970070D01*
X182404521Y-105954830D01*
X182382018Y-105935434D01*
X182357525Y-105907043D01*
X182334942Y-105874719D01*
X182318166Y-105843523D01*
X182317345Y-105841597D01*
X182307490Y-105802747D01*
X182305731Y-105757329D01*
X182311766Y-105711493D01*
X182325292Y-105671389D01*
X182325771Y-105670417D01*
X182354317Y-105625989D01*
X182392143Y-105585499D01*
X182434504Y-105553754D01*
X182448683Y-105546008D01*
X182488928Y-105532720D01*
X182536094Y-105527158D01*
X182536094Y-105527158D01*
X182536094Y-105527158D01*
G37*
X182536094Y-105527158D02*
X182584273Y-105529346D01*
X182627558Y-105539306D01*
X182641742Y-105545255D01*
X182678381Y-105568793D01*
X182714932Y-105601539D01*
X182746350Y-105638440D01*
X182764900Y-105668578D01*
X182772740Y-105691940D01*
X182545990Y-105691940D01*
X182511795Y-105695007D01*
X182489738Y-105705575D01*
X182477723Y-105725698D01*
X182473655Y-105757429D01*
X182473600Y-105762874D01*
X182475375Y-105788529D01*
X182479908Y-105809358D01*
X182483329Y-105816632D01*
X182501325Y-105829853D01*
X182527871Y-105836833D01*
X182557647Y-105837563D01*
X182585330Y-105832032D01*
X182605597Y-105820232D01*
X182608483Y-105816862D01*
X182616266Y-105796757D01*
X182618816Y-105769251D01*
X182616429Y-105740480D01*
X182609406Y-105716580D01*
X182603140Y-105707180D01*
X182588456Y-105697325D01*
X182566999Y-105692725D01*
X182545990Y-105691940D01*
X182772740Y-105691940D01*
X182776973Y-105704554D01*
X182783359Y-105747649D01*
X182783700Y-105791567D01*
X182777637Y-105830010D01*
X182774617Y-105839270D01*
X182759013Y-105870768D01*
X182736825Y-105903897D01*
X182711987Y-105933440D01*
X182688432Y-105954183D01*
X182687459Y-105954830D01*
X182664144Y-105970070D01*
X182664122Y-106132240D01*
X182663844Y-106191508D01*
X182662956Y-106237414D01*
X182661349Y-106271824D01*
X182658914Y-106296609D01*
X182655544Y-106313637D01*
X182653176Y-106320555D01*
X182643540Y-106335884D01*
X182624971Y-106359138D01*
X182599670Y-106388051D01*
X182569840Y-106420357D01*
X182537686Y-106453792D01*
X182505409Y-106486090D01*
X182475213Y-106514985D01*
X182449300Y-106538212D01*
X182429874Y-106553505D01*
X182422410Y-106557864D01*
X182415664Y-106559727D01*
X182404195Y-106561363D01*
X182387117Y-106562787D01*
X182363543Y-106564012D01*
X182332586Y-106565049D01*
X182293358Y-106565914D01*
X182244974Y-106566619D01*
X182186546Y-106567178D01*
X182117186Y-106567603D01*
X182036009Y-106567909D01*
X181942128Y-106568108D01*
X181834654Y-106568213D01*
X181730895Y-106568240D01*
X181063900Y-106568240D01*
X181063900Y-106450130D01*
X181063900Y-106332020D01*
X181694659Y-106332020D01*
X182325419Y-106332020D01*
X182376649Y-106280394D01*
X182427880Y-106228768D01*
X182427858Y-106099419D01*
X182427836Y-105970070D01*
X182404521Y-105954830D01*
X182382018Y-105935434D01*
X182357525Y-105907043D01*
X182334942Y-105874719D01*
X182318166Y-105843523D01*
X182317345Y-105841597D01*
X182307490Y-105802747D01*
X182305731Y-105757329D01*
X182311766Y-105711493D01*
X182325292Y-105671389D01*
X182325771Y-105670417D01*
X182354317Y-105625989D01*
X182392143Y-105585499D01*
X182434504Y-105553754D01*
X182448683Y-105546008D01*
X182488928Y-105532720D01*
X182536094Y-105527158D01*
X182536094Y-105527158D01*
G36*
X182521021Y-103582943D02*
X182569796Y-103583546D01*
X182616946Y-103592830D01*
X182641742Y-103602424D01*
X182678127Y-103625585D01*
X182714594Y-103658088D01*
X182746112Y-103694916D01*
X182765065Y-103725478D01*
X182772681Y-103748840D01*
X182545990Y-103748840D01*
X182511795Y-103751907D01*
X182489738Y-103762475D01*
X182477723Y-103782598D01*
X182473655Y-103814329D01*
X182473600Y-103819774D01*
X182475375Y-103845429D01*
X182479908Y-103866258D01*
X182483329Y-103873532D01*
X182501325Y-103886753D01*
X182527871Y-103893733D01*
X182557647Y-103894463D01*
X182585330Y-103888932D01*
X182605597Y-103877132D01*
X182608483Y-103873762D01*
X182616266Y-103853657D01*
X182618816Y-103826151D01*
X182616429Y-103797380D01*
X182609406Y-103773480D01*
X182603140Y-103764080D01*
X182588456Y-103754225D01*
X182566999Y-103749625D01*
X182545990Y-103748840D01*
X182772681Y-103748840D01*
X182778041Y-103765281D01*
X182783235Y-103812265D01*
X182780672Y-103860525D01*
X182770373Y-103904150D01*
X182764312Y-103918537D01*
X182736247Y-103961699D01*
X182697753Y-104001696D01*
X182653570Y-104033881D01*
X182638204Y-104042165D01*
X182595365Y-104056712D01*
X182547759Y-104062526D01*
X182501372Y-104059317D01*
X182469862Y-104050351D01*
X182438163Y-104033780D01*
X182405285Y-104011231D01*
X182376253Y-103986556D01*
X182356092Y-103963604D01*
X182355490Y-103962699D01*
X182340250Y-103939384D01*
X181820185Y-103939362D01*
X181300120Y-103939340D01*
X181300120Y-103971781D01*
X181300327Y-103980514D01*
X181301644Y-103988714D01*
X181305112Y-103997598D01*
X181311775Y-104008382D01*
X181322673Y-104022286D01*
X181338850Y-104040524D01*
X181361347Y-104064317D01*
X181391208Y-104094879D01*
X181429473Y-104133429D01*
X181477186Y-104181184D01*
X181492580Y-104196571D01*
X181685040Y-104388920D01*
X181757375Y-104388898D01*
X181790999Y-104388733D01*
X181812842Y-104387646D01*
X181826361Y-104384717D01*
X181835015Y-104379023D01*
X181842263Y-104369644D01*
X181844950Y-104365561D01*
X181867062Y-104340138D01*
X181898597Y-104314302D01*
X181934331Y-104291838D01*
X181966820Y-104277268D01*
X182010481Y-104268743D01*
X182059256Y-104269346D01*
X182106406Y-104278630D01*
X182131202Y-104288224D01*
X182167587Y-104311385D01*
X182204053Y-104343888D01*
X182235572Y-104380716D01*
X182254524Y-104411278D01*
X182262141Y-104434640D01*
X182035450Y-104434640D01*
X182001255Y-104437707D01*
X181979198Y-104448275D01*
X181967183Y-104468398D01*
X181963115Y-104500129D01*
X181963060Y-104505574D01*
X181964835Y-104531229D01*
X181969368Y-104552058D01*
X181972789Y-104559332D01*
X181990785Y-104572553D01*
X182017331Y-104579533D01*
X182047107Y-104580263D01*
X182074790Y-104574732D01*
X182095057Y-104562932D01*
X182097943Y-104559562D01*
X182105726Y-104539457D01*
X182108276Y-104511951D01*
X182105889Y-104483180D01*
X182098866Y-104459280D01*
X182092600Y-104449880D01*
X182077916Y-104440025D01*
X182056459Y-104435425D01*
X182035450Y-104434640D01*
X182262141Y-104434640D01*
X182267501Y-104451081D01*
X182272695Y-104498065D01*
X182270132Y-104546325D01*
X182259833Y-104589950D01*
X182253772Y-104604336D01*
X182225707Y-104647499D01*
X182187213Y-104687496D01*
X182143030Y-104719681D01*
X182127664Y-104727965D01*
X182084825Y-104742512D01*
X182037219Y-104748326D01*
X181990832Y-104745117D01*
X181959322Y-104736151D01*
X181927623Y-104719580D01*
X181894745Y-104697031D01*
X181865713Y-104672356D01*
X181845552Y-104649404D01*
X181844950Y-104648499D01*
X181837405Y-104637694D01*
X181829600Y-104630880D01*
X181818078Y-104627136D01*
X181799379Y-104625540D01*
X181770046Y-104625172D01*
X181757375Y-104625162D01*
X181685040Y-104625140D01*
X181492580Y-104817489D01*
X181441999Y-104868076D01*
X181401160Y-104909113D01*
X181369022Y-104941817D01*
X181344543Y-104967406D01*
X181326679Y-104987096D01*
X181314390Y-105002105D01*
X181306632Y-105013650D01*
X181302364Y-105022949D01*
X181300543Y-105031219D01*
X181300127Y-105039677D01*
X181300120Y-105042279D01*
X181300120Y-105074720D01*
X181820185Y-105074698D01*
X182340250Y-105074676D01*
X182355490Y-105051361D01*
X182377602Y-105025938D01*
X182409137Y-105000102D01*
X182444871Y-104977638D01*
X182477360Y-104963068D01*
X182521021Y-104954543D01*
X182569796Y-104955146D01*
X182616946Y-104964430D01*
X182641742Y-104974024D01*
X182678213Y-104997244D01*
X182714694Y-105029795D01*
X182746136Y-105066633D01*
X182764900Y-105097078D01*
X182772751Y-105120440D01*
X182545990Y-105120440D01*
X182511795Y-105123507D01*
X182489738Y-105134075D01*
X182477723Y-105154198D01*
X182473655Y-105185929D01*
X182473600Y-105191374D01*
X182475375Y-105217029D01*
X182479908Y-105237858D01*
X182483329Y-105245132D01*
X182501325Y-105258353D01*
X182527871Y-105265333D01*
X182557647Y-105266063D01*
X182585330Y-105260532D01*
X182605597Y-105248732D01*
X182608483Y-105245362D01*
X182616266Y-105225257D01*
X182618816Y-105197751D01*
X182616429Y-105168980D01*
X182609406Y-105145080D01*
X182603140Y-105135680D01*
X182588456Y-105125825D01*
X182566999Y-105121225D01*
X182545990Y-105120440D01*
X182772751Y-105120440D01*
X182776874Y-105132708D01*
X182783290Y-105175464D01*
X182783784Y-105219083D01*
X182777993Y-105257303D01*
X182774770Y-105267326D01*
X182748326Y-105317193D01*
X182710044Y-105362551D01*
X182663288Y-105400000D01*
X182621577Y-105422177D01*
X182590138Y-105430269D01*
X182551049Y-105433352D01*
X182511051Y-105431436D01*
X182476885Y-105424532D01*
X182469862Y-105421951D01*
X182438163Y-105405380D01*
X182405285Y-105382831D01*
X182376253Y-105358156D01*
X182356092Y-105335204D01*
X182355490Y-105334299D01*
X182340250Y-105310984D01*
X181702075Y-105310962D01*
X181063900Y-105310940D01*
X181063900Y-105128556D01*
X181064240Y-105069749D01*
X181065214Y-105018350D01*
X181066748Y-104976202D01*
X181068771Y-104945145D01*
X181071211Y-104927021D01*
X181071880Y-104924721D01*
X181078977Y-104914527D01*
X181095654Y-104894982D01*
X181120643Y-104867439D01*
X181152674Y-104833252D01*
X181190481Y-104793776D01*
X181232795Y-104750363D01*
X181277621Y-104705096D01*
X181475383Y-104506921D01*
X181280304Y-104312665D01*
X181234887Y-104267062D01*
X181192625Y-104223903D01*
X181154823Y-104184578D01*
X181122791Y-104150477D01*
X181097835Y-104122991D01*
X181081264Y-104103509D01*
X181074563Y-104093890D01*
X181070940Y-104081728D01*
X181068172Y-104062870D01*
X181066172Y-104035607D01*
X181064852Y-103998232D01*
X181064123Y-103949039D01*
X181063900Y-103886321D01*
X181063900Y-103886245D01*
X181063900Y-103703120D01*
X181702075Y-103703098D01*
X182340250Y-103703076D01*
X182355490Y-103679761D01*
X182377602Y-103654338D01*
X182409137Y-103628502D01*
X182444871Y-103606038D01*
X182477360Y-103591468D01*
X182521021Y-103582943D01*
X182521021Y-103582943D01*
X182521021Y-103582943D01*
G37*
X182521021Y-103582943D02*
X182569796Y-103583546D01*
X182616946Y-103592830D01*
X182641742Y-103602424D01*
X182678127Y-103625585D01*
X182714594Y-103658088D01*
X182746112Y-103694916D01*
X182765065Y-103725478D01*
X182772681Y-103748840D01*
X182545990Y-103748840D01*
X182511795Y-103751907D01*
X182489738Y-103762475D01*
X182477723Y-103782598D01*
X182473655Y-103814329D01*
X182473600Y-103819774D01*
X182475375Y-103845429D01*
X182479908Y-103866258D01*
X182483329Y-103873532D01*
X182501325Y-103886753D01*
X182527871Y-103893733D01*
X182557647Y-103894463D01*
X182585330Y-103888932D01*
X182605597Y-103877132D01*
X182608483Y-103873762D01*
X182616266Y-103853657D01*
X182618816Y-103826151D01*
X182616429Y-103797380D01*
X182609406Y-103773480D01*
X182603140Y-103764080D01*
X182588456Y-103754225D01*
X182566999Y-103749625D01*
X182545990Y-103748840D01*
X182772681Y-103748840D01*
X182778041Y-103765281D01*
X182783235Y-103812265D01*
X182780672Y-103860525D01*
X182770373Y-103904150D01*
X182764312Y-103918537D01*
X182736247Y-103961699D01*
X182697753Y-104001696D01*
X182653570Y-104033881D01*
X182638204Y-104042165D01*
X182595365Y-104056712D01*
X182547759Y-104062526D01*
X182501372Y-104059317D01*
X182469862Y-104050351D01*
X182438163Y-104033780D01*
X182405285Y-104011231D01*
X182376253Y-103986556D01*
X182356092Y-103963604D01*
X182355490Y-103962699D01*
X182340250Y-103939384D01*
X181820185Y-103939362D01*
X181300120Y-103939340D01*
X181300120Y-103971781D01*
X181300327Y-103980514D01*
X181301644Y-103988714D01*
X181305112Y-103997598D01*
X181311775Y-104008382D01*
X181322673Y-104022286D01*
X181338850Y-104040524D01*
X181361347Y-104064317D01*
X181391208Y-104094879D01*
X181429473Y-104133429D01*
X181477186Y-104181184D01*
X181492580Y-104196571D01*
X181685040Y-104388920D01*
X181757375Y-104388898D01*
X181790999Y-104388733D01*
X181812842Y-104387646D01*
X181826361Y-104384717D01*
X181835015Y-104379023D01*
X181842263Y-104369644D01*
X181844950Y-104365561D01*
X181867062Y-104340138D01*
X181898597Y-104314302D01*
X181934331Y-104291838D01*
X181966820Y-104277268D01*
X182010481Y-104268743D01*
X182059256Y-104269346D01*
X182106406Y-104278630D01*
X182131202Y-104288224D01*
X182167587Y-104311385D01*
X182204053Y-104343888D01*
X182235572Y-104380716D01*
X182254524Y-104411278D01*
X182262141Y-104434640D01*
X182035450Y-104434640D01*
X182001255Y-104437707D01*
X181979198Y-104448275D01*
X181967183Y-104468398D01*
X181963115Y-104500129D01*
X181963060Y-104505574D01*
X181964835Y-104531229D01*
X181969368Y-104552058D01*
X181972789Y-104559332D01*
X181990785Y-104572553D01*
X182017331Y-104579533D01*
X182047107Y-104580263D01*
X182074790Y-104574732D01*
X182095057Y-104562932D01*
X182097943Y-104559562D01*
X182105726Y-104539457D01*
X182108276Y-104511951D01*
X182105889Y-104483180D01*
X182098866Y-104459280D01*
X182092600Y-104449880D01*
X182077916Y-104440025D01*
X182056459Y-104435425D01*
X182035450Y-104434640D01*
X182262141Y-104434640D01*
X182267501Y-104451081D01*
X182272695Y-104498065D01*
X182270132Y-104546325D01*
X182259833Y-104589950D01*
X182253772Y-104604336D01*
X182225707Y-104647499D01*
X182187213Y-104687496D01*
X182143030Y-104719681D01*
X182127664Y-104727965D01*
X182084825Y-104742512D01*
X182037219Y-104748326D01*
X181990832Y-104745117D01*
X181959322Y-104736151D01*
X181927623Y-104719580D01*
X181894745Y-104697031D01*
X181865713Y-104672356D01*
X181845552Y-104649404D01*
X181844950Y-104648499D01*
X181837405Y-104637694D01*
X181829600Y-104630880D01*
X181818078Y-104627136D01*
X181799379Y-104625540D01*
X181770046Y-104625172D01*
X181757375Y-104625162D01*
X181685040Y-104625140D01*
X181492580Y-104817489D01*
X181441999Y-104868076D01*
X181401160Y-104909113D01*
X181369022Y-104941817D01*
X181344543Y-104967406D01*
X181326679Y-104987096D01*
X181314390Y-105002105D01*
X181306632Y-105013650D01*
X181302364Y-105022949D01*
X181300543Y-105031219D01*
X181300127Y-105039677D01*
X181300120Y-105042279D01*
X181300120Y-105074720D01*
X181820185Y-105074698D01*
X182340250Y-105074676D01*
X182355490Y-105051361D01*
X182377602Y-105025938D01*
X182409137Y-105000102D01*
X182444871Y-104977638D01*
X182477360Y-104963068D01*
X182521021Y-104954543D01*
X182569796Y-104955146D01*
X182616946Y-104964430D01*
X182641742Y-104974024D01*
X182678213Y-104997244D01*
X182714694Y-105029795D01*
X182746136Y-105066633D01*
X182764900Y-105097078D01*
X182772751Y-105120440D01*
X182545990Y-105120440D01*
X182511795Y-105123507D01*
X182489738Y-105134075D01*
X182477723Y-105154198D01*
X182473655Y-105185929D01*
X182473600Y-105191374D01*
X182475375Y-105217029D01*
X182479908Y-105237858D01*
X182483329Y-105245132D01*
X182501325Y-105258353D01*
X182527871Y-105265333D01*
X182557647Y-105266063D01*
X182585330Y-105260532D01*
X182605597Y-105248732D01*
X182608483Y-105245362D01*
X182616266Y-105225257D01*
X182618816Y-105197751D01*
X182616429Y-105168980D01*
X182609406Y-105145080D01*
X182603140Y-105135680D01*
X182588456Y-105125825D01*
X182566999Y-105121225D01*
X182545990Y-105120440D01*
X182772751Y-105120440D01*
X182776874Y-105132708D01*
X182783290Y-105175464D01*
X182783784Y-105219083D01*
X182777993Y-105257303D01*
X182774770Y-105267326D01*
X182748326Y-105317193D01*
X182710044Y-105362551D01*
X182663288Y-105400000D01*
X182621577Y-105422177D01*
X182590138Y-105430269D01*
X182551049Y-105433352D01*
X182511051Y-105431436D01*
X182476885Y-105424532D01*
X182469862Y-105421951D01*
X182438163Y-105405380D01*
X182405285Y-105382831D01*
X182376253Y-105358156D01*
X182356092Y-105335204D01*
X182355490Y-105334299D01*
X182340250Y-105310984D01*
X181702075Y-105310962D01*
X181063900Y-105310940D01*
X181063900Y-105128556D01*
X181064240Y-105069749D01*
X181065214Y-105018350D01*
X181066748Y-104976202D01*
X181068771Y-104945145D01*
X181071211Y-104927021D01*
X181071880Y-104924721D01*
X181078977Y-104914527D01*
X181095654Y-104894982D01*
X181120643Y-104867439D01*
X181152674Y-104833252D01*
X181190481Y-104793776D01*
X181232795Y-104750363D01*
X181277621Y-104705096D01*
X181475383Y-104506921D01*
X181280304Y-104312665D01*
X181234887Y-104267062D01*
X181192625Y-104223903D01*
X181154823Y-104184578D01*
X181122791Y-104150477D01*
X181097835Y-104122991D01*
X181081264Y-104103509D01*
X181074563Y-104093890D01*
X181070940Y-104081728D01*
X181068172Y-104062870D01*
X181066172Y-104035607D01*
X181064852Y-103998232D01*
X181064123Y-103949039D01*
X181063900Y-103886321D01*
X181063900Y-103886245D01*
X181063900Y-103703120D01*
X181702075Y-103703098D01*
X182340250Y-103703076D01*
X182355490Y-103679761D01*
X182377602Y-103654338D01*
X182409137Y-103628502D01*
X182444871Y-103606038D01*
X182477360Y-103591468D01*
X182521021Y-103582943D01*
X182521021Y-103582943D01*
G36*
X182536094Y-101465698D02*
X182584273Y-101467886D01*
X182627558Y-101477846D01*
X182641742Y-101483795D01*
X182678381Y-101507333D01*
X182714932Y-101540079D01*
X182746350Y-101576980D01*
X182764900Y-101607118D01*
X182772751Y-101630480D01*
X182545990Y-101630480D01*
X182511795Y-101633546D01*
X182489738Y-101644115D01*
X182477723Y-101664238D01*
X182473655Y-101695969D01*
X182473600Y-101701414D01*
X182475375Y-101727069D01*
X182479908Y-101747898D01*
X182483329Y-101755172D01*
X182501325Y-101768393D01*
X182527871Y-101775373D01*
X182557647Y-101776103D01*
X182585330Y-101770572D01*
X182605597Y-101758772D01*
X182608483Y-101755403D01*
X182616266Y-101735297D01*
X182618816Y-101707791D01*
X182616429Y-101679020D01*
X182609406Y-101655120D01*
X182603140Y-101645720D01*
X182588456Y-101635865D01*
X182566999Y-101631265D01*
X182545990Y-101630480D01*
X182772751Y-101630480D01*
X182776874Y-101642748D01*
X182783290Y-101685504D01*
X182783784Y-101729123D01*
X182777993Y-101767343D01*
X182774770Y-101777366D01*
X182748326Y-101827233D01*
X182710044Y-101872591D01*
X182663288Y-101910040D01*
X182621577Y-101932217D01*
X182589803Y-101940386D01*
X182550414Y-101943411D01*
X182510131Y-101941315D01*
X182475675Y-101934121D01*
X182469133Y-101931686D01*
X182440015Y-101919520D01*
X182327267Y-102032080D01*
X182214520Y-102144639D01*
X182214520Y-102186689D01*
X182214520Y-102228739D01*
X182459123Y-102472535D01*
X182510019Y-102523563D01*
X182557788Y-102572037D01*
X182601287Y-102616752D01*
X182639369Y-102656504D01*
X182670888Y-102690089D01*
X182694701Y-102716304D01*
X182709660Y-102733943D01*
X182714393Y-102740850D01*
X182717808Y-102756583D01*
X182720628Y-102785078D01*
X182722854Y-102823866D01*
X182724484Y-102870482D01*
X182725516Y-102922457D01*
X182725948Y-102977325D01*
X182725780Y-103032619D01*
X182725009Y-103085871D01*
X182723635Y-103134614D01*
X182721655Y-103176382D01*
X182719069Y-103208706D01*
X182715874Y-103229120D01*
X182714684Y-103232830D01*
X182705068Y-103247451D01*
X182686197Y-103269845D01*
X182660336Y-103297808D01*
X182629749Y-103329138D01*
X182596703Y-103361632D01*
X182563462Y-103393086D01*
X182532293Y-103421298D01*
X182505461Y-103444065D01*
X182485231Y-103459183D01*
X182477375Y-103463596D01*
X182464253Y-103465881D01*
X182437392Y-103467930D01*
X182398292Y-103469743D01*
X182348453Y-103471319D01*
X182289374Y-103472658D01*
X182222556Y-103473761D01*
X182149497Y-103474627D01*
X182071698Y-103475256D01*
X181990658Y-103475649D01*
X181907877Y-103475806D01*
X181824854Y-103475725D01*
X181743089Y-103475409D01*
X181664082Y-103474855D01*
X181589333Y-103474065D01*
X181520340Y-103473039D01*
X181458604Y-103471776D01*
X181405625Y-103470276D01*
X181362901Y-103468540D01*
X181331933Y-103466567D01*
X181314221Y-103464358D01*
X181311585Y-103463596D01*
X181296256Y-103453960D01*
X181273002Y-103435391D01*
X181244089Y-103410090D01*
X181211783Y-103380261D01*
X181178348Y-103348106D01*
X181146050Y-103315829D01*
X181117155Y-103285633D01*
X181093928Y-103259720D01*
X181078635Y-103240294D01*
X181074276Y-103232830D01*
X181070881Y-103216899D01*
X181068093Y-103188243D01*
X181065913Y-103149326D01*
X181064339Y-103102618D01*
X181063369Y-103050585D01*
X181063001Y-102995693D01*
X181063235Y-102940411D01*
X181064068Y-102887206D01*
X181065500Y-102838544D01*
X181067529Y-102796893D01*
X181070153Y-102764719D01*
X181073372Y-102744491D01*
X181074567Y-102740850D01*
X181082079Y-102730486D01*
X181099309Y-102710638D01*
X181125112Y-102682510D01*
X181158343Y-102647305D01*
X181197855Y-102606228D01*
X181242504Y-102560483D01*
X181291144Y-102511273D01*
X181329837Y-102472535D01*
X181574440Y-102228739D01*
X181574440Y-102186689D01*
X181574440Y-102144639D01*
X181461692Y-102032080D01*
X181348945Y-101919520D01*
X181319827Y-101931686D01*
X181277661Y-101942423D01*
X181229810Y-101943622D01*
X181182244Y-101935560D01*
X181150756Y-101923805D01*
X181102620Y-101892921D01*
X181059667Y-101851473D01*
X181026569Y-101804099D01*
X181022751Y-101796783D01*
X181006102Y-101747263D01*
X181001956Y-101693787D01*
X181010315Y-101641113D01*
X181022751Y-101608957D01*
X181051297Y-101564529D01*
X181089123Y-101524039D01*
X181131484Y-101492294D01*
X181145663Y-101484548D01*
X181169926Y-101474502D01*
X181195259Y-101468948D01*
X181227559Y-101466799D01*
X181242970Y-101466650D01*
X181292951Y-101470134D01*
X181334444Y-101481917D01*
X181372189Y-101503994D01*
X181409206Y-101536634D01*
X181447813Y-101583896D01*
X181470034Y-101630480D01*
X181242970Y-101630480D01*
X181208775Y-101633546D01*
X181186718Y-101644115D01*
X181174703Y-101664238D01*
X181170635Y-101695969D01*
X181170580Y-101701414D01*
X181172355Y-101727069D01*
X181176888Y-101747898D01*
X181180309Y-101755172D01*
X181198305Y-101768393D01*
X181224851Y-101775373D01*
X181254627Y-101776103D01*
X181282310Y-101770572D01*
X181302577Y-101758772D01*
X181305463Y-101755403D01*
X181313246Y-101735297D01*
X181315796Y-101707791D01*
X181313409Y-101679020D01*
X181306386Y-101655120D01*
X181300120Y-101645720D01*
X181285436Y-101635865D01*
X181263979Y-101631265D01*
X181242970Y-101630480D01*
X181470034Y-101630480D01*
X181471805Y-101634192D01*
X181481346Y-101683406D01*
X181484509Y-101725730D01*
X181639600Y-101881940D01*
X181679836Y-101922921D01*
X181716749Y-101961383D01*
X181748885Y-101995744D01*
X181774793Y-102024422D01*
X181793023Y-102045837D01*
X181802121Y-102058406D01*
X181802675Y-102059601D01*
X181806570Y-102078638D01*
X181809197Y-102108868D01*
X181810594Y-102146575D01*
X181810801Y-102188043D01*
X181809855Y-102229555D01*
X181807795Y-102267396D01*
X181804659Y-102297850D01*
X181800487Y-102317200D01*
X181799993Y-102318430D01*
X181792481Y-102328794D01*
X181775251Y-102348642D01*
X181749448Y-102376770D01*
X181716217Y-102411975D01*
X181676705Y-102453052D01*
X181632056Y-102498797D01*
X181583416Y-102548007D01*
X181544723Y-102586745D01*
X181300120Y-102830541D01*
X181300120Y-102983190D01*
X181300120Y-103135839D01*
X181351746Y-103187069D01*
X181403372Y-103238300D01*
X181576536Y-103238300D01*
X181749700Y-103238300D01*
X181749678Y-103087805D01*
X181749656Y-102937310D01*
X181726341Y-102922070D01*
X181703837Y-102902674D01*
X181679345Y-102874283D01*
X181656762Y-102841959D01*
X181639986Y-102810763D01*
X181639165Y-102808837D01*
X181629310Y-102769987D01*
X181627551Y-102724569D01*
X181633586Y-102678733D01*
X181647112Y-102638629D01*
X181647591Y-102637657D01*
X181676137Y-102593229D01*
X181713963Y-102552739D01*
X181756324Y-102520994D01*
X181770503Y-102513248D01*
X181810748Y-102499960D01*
X181857914Y-102494398D01*
X181906093Y-102496586D01*
X181949378Y-102506546D01*
X181963562Y-102512495D01*
X182000149Y-102535989D01*
X182036619Y-102568645D01*
X182067954Y-102605439D01*
X182086616Y-102635818D01*
X182094398Y-102659180D01*
X181867810Y-102659180D01*
X181833615Y-102662246D01*
X181811558Y-102672815D01*
X181799543Y-102692938D01*
X181795475Y-102724669D01*
X181795420Y-102730114D01*
X181797195Y-102755769D01*
X181801728Y-102776598D01*
X181805149Y-102783872D01*
X181823145Y-102797093D01*
X181849691Y-102804073D01*
X181879467Y-102804803D01*
X181907150Y-102799272D01*
X181927417Y-102787472D01*
X181930303Y-102784103D01*
X181938086Y-102763997D01*
X181940636Y-102736491D01*
X181938249Y-102707720D01*
X181931226Y-102683820D01*
X181924960Y-102674420D01*
X181910276Y-102664565D01*
X181888819Y-102659965D01*
X181867810Y-102659180D01*
X182094398Y-102659180D01*
X182100912Y-102678737D01*
X182106798Y-102727340D01*
X182103826Y-102774889D01*
X182097572Y-102800200D01*
X182081662Y-102835140D01*
X182058849Y-102870754D01*
X182032921Y-102901815D01*
X182009279Y-102922070D01*
X181985964Y-102937310D01*
X181985942Y-103087805D01*
X181985920Y-103238300D01*
X182186149Y-103238300D01*
X182386379Y-103238300D01*
X182437609Y-103186674D01*
X182488840Y-103135048D01*
X182488840Y-102982794D01*
X182488840Y-102830541D01*
X182244237Y-102586745D01*
X182193341Y-102535717D01*
X182145572Y-102487243D01*
X182102073Y-102442528D01*
X182063991Y-102402776D01*
X182032471Y-102369191D01*
X182008659Y-102342976D01*
X181993700Y-102325337D01*
X181988967Y-102318430D01*
X181984076Y-102298623D01*
X181980587Y-102267446D01*
X181978500Y-102228704D01*
X181977815Y-102186205D01*
X181978532Y-102143752D01*
X181980652Y-102105151D01*
X181984174Y-102074209D01*
X181988957Y-102055050D01*
X181997043Y-102043380D01*
X182014536Y-102022708D01*
X182039926Y-101994663D01*
X182071701Y-101960877D01*
X182108352Y-101922979D01*
X182148368Y-101882602D01*
X182152787Y-101878201D01*
X182305960Y-101725873D01*
X182305960Y-101687293D01*
X182312929Y-101642946D01*
X182332360Y-101597630D01*
X182362042Y-101554486D01*
X182399763Y-101516658D01*
X182443309Y-101487287D01*
X182448683Y-101484548D01*
X182488928Y-101471260D01*
X182536094Y-101465698D01*
X182536094Y-101465698D01*
X182536094Y-101465698D01*
G37*
X182536094Y-101465698D02*
X182584273Y-101467886D01*
X182627558Y-101477846D01*
X182641742Y-101483795D01*
X182678381Y-101507333D01*
X182714932Y-101540079D01*
X182746350Y-101576980D01*
X182764900Y-101607118D01*
X182772751Y-101630480D01*
X182545990Y-101630480D01*
X182511795Y-101633546D01*
X182489738Y-101644115D01*
X182477723Y-101664238D01*
X182473655Y-101695969D01*
X182473600Y-101701414D01*
X182475375Y-101727069D01*
X182479908Y-101747898D01*
X182483329Y-101755172D01*
X182501325Y-101768393D01*
X182527871Y-101775373D01*
X182557647Y-101776103D01*
X182585330Y-101770572D01*
X182605597Y-101758772D01*
X182608483Y-101755403D01*
X182616266Y-101735297D01*
X182618816Y-101707791D01*
X182616429Y-101679020D01*
X182609406Y-101655120D01*
X182603140Y-101645720D01*
X182588456Y-101635865D01*
X182566999Y-101631265D01*
X182545990Y-101630480D01*
X182772751Y-101630480D01*
X182776874Y-101642748D01*
X182783290Y-101685504D01*
X182783784Y-101729123D01*
X182777993Y-101767343D01*
X182774770Y-101777366D01*
X182748326Y-101827233D01*
X182710044Y-101872591D01*
X182663288Y-101910040D01*
X182621577Y-101932217D01*
X182589803Y-101940386D01*
X182550414Y-101943411D01*
X182510131Y-101941315D01*
X182475675Y-101934121D01*
X182469133Y-101931686D01*
X182440015Y-101919520D01*
X182327267Y-102032080D01*
X182214520Y-102144639D01*
X182214520Y-102186689D01*
X182214520Y-102228739D01*
X182459123Y-102472535D01*
X182510019Y-102523563D01*
X182557788Y-102572037D01*
X182601287Y-102616752D01*
X182639369Y-102656504D01*
X182670888Y-102690089D01*
X182694701Y-102716304D01*
X182709660Y-102733943D01*
X182714393Y-102740850D01*
X182717808Y-102756583D01*
X182720628Y-102785078D01*
X182722854Y-102823866D01*
X182724484Y-102870482D01*
X182725516Y-102922457D01*
X182725948Y-102977325D01*
X182725780Y-103032619D01*
X182725009Y-103085871D01*
X182723635Y-103134614D01*
X182721655Y-103176382D01*
X182719069Y-103208706D01*
X182715874Y-103229120D01*
X182714684Y-103232830D01*
X182705068Y-103247451D01*
X182686197Y-103269845D01*
X182660336Y-103297808D01*
X182629749Y-103329138D01*
X182596703Y-103361632D01*
X182563462Y-103393086D01*
X182532293Y-103421298D01*
X182505461Y-103444065D01*
X182485231Y-103459183D01*
X182477375Y-103463596D01*
X182464253Y-103465881D01*
X182437392Y-103467930D01*
X182398292Y-103469743D01*
X182348453Y-103471319D01*
X182289374Y-103472658D01*
X182222556Y-103473761D01*
X182149497Y-103474627D01*
X182071698Y-103475256D01*
X181990658Y-103475649D01*
X181907877Y-103475806D01*
X181824854Y-103475725D01*
X181743089Y-103475409D01*
X181664082Y-103474855D01*
X181589333Y-103474065D01*
X181520340Y-103473039D01*
X181458604Y-103471776D01*
X181405625Y-103470276D01*
X181362901Y-103468540D01*
X181331933Y-103466567D01*
X181314221Y-103464358D01*
X181311585Y-103463596D01*
X181296256Y-103453960D01*
X181273002Y-103435391D01*
X181244089Y-103410090D01*
X181211783Y-103380261D01*
X181178348Y-103348106D01*
X181146050Y-103315829D01*
X181117155Y-103285633D01*
X181093928Y-103259720D01*
X181078635Y-103240294D01*
X181074276Y-103232830D01*
X181070881Y-103216899D01*
X181068093Y-103188243D01*
X181065913Y-103149326D01*
X181064339Y-103102618D01*
X181063369Y-103050585D01*
X181063001Y-102995693D01*
X181063235Y-102940411D01*
X181064068Y-102887206D01*
X181065500Y-102838544D01*
X181067529Y-102796893D01*
X181070153Y-102764719D01*
X181073372Y-102744491D01*
X181074567Y-102740850D01*
X181082079Y-102730486D01*
X181099309Y-102710638D01*
X181125112Y-102682510D01*
X181158343Y-102647305D01*
X181197855Y-102606228D01*
X181242504Y-102560483D01*
X181291144Y-102511273D01*
X181329837Y-102472535D01*
X181574440Y-102228739D01*
X181574440Y-102186689D01*
X181574440Y-102144639D01*
X181461692Y-102032080D01*
X181348945Y-101919520D01*
X181319827Y-101931686D01*
X181277661Y-101942423D01*
X181229810Y-101943622D01*
X181182244Y-101935560D01*
X181150756Y-101923805D01*
X181102620Y-101892921D01*
X181059667Y-101851473D01*
X181026569Y-101804099D01*
X181022751Y-101796783D01*
X181006102Y-101747263D01*
X181001956Y-101693787D01*
X181010315Y-101641113D01*
X181022751Y-101608957D01*
X181051297Y-101564529D01*
X181089123Y-101524039D01*
X181131484Y-101492294D01*
X181145663Y-101484548D01*
X181169926Y-101474502D01*
X181195259Y-101468948D01*
X181227559Y-101466799D01*
X181242970Y-101466650D01*
X181292951Y-101470134D01*
X181334444Y-101481917D01*
X181372189Y-101503994D01*
X181409206Y-101536634D01*
X181447813Y-101583896D01*
X181470034Y-101630480D01*
X181242970Y-101630480D01*
X181208775Y-101633546D01*
X181186718Y-101644115D01*
X181174703Y-101664238D01*
X181170635Y-101695969D01*
X181170580Y-101701414D01*
X181172355Y-101727069D01*
X181176888Y-101747898D01*
X181180309Y-101755172D01*
X181198305Y-101768393D01*
X181224851Y-101775373D01*
X181254627Y-101776103D01*
X181282310Y-101770572D01*
X181302577Y-101758772D01*
X181305463Y-101755403D01*
X181313246Y-101735297D01*
X181315796Y-101707791D01*
X181313409Y-101679020D01*
X181306386Y-101655120D01*
X181300120Y-101645720D01*
X181285436Y-101635865D01*
X181263979Y-101631265D01*
X181242970Y-101630480D01*
X181470034Y-101630480D01*
X181471805Y-101634192D01*
X181481346Y-101683406D01*
X181484509Y-101725730D01*
X181639600Y-101881940D01*
X181679836Y-101922921D01*
X181716749Y-101961383D01*
X181748885Y-101995744D01*
X181774793Y-102024422D01*
X181793023Y-102045837D01*
X181802121Y-102058406D01*
X181802675Y-102059601D01*
X181806570Y-102078638D01*
X181809197Y-102108868D01*
X181810594Y-102146575D01*
X181810801Y-102188043D01*
X181809855Y-102229555D01*
X181807795Y-102267396D01*
X181804659Y-102297850D01*
X181800487Y-102317200D01*
X181799993Y-102318430D01*
X181792481Y-102328794D01*
X181775251Y-102348642D01*
X181749448Y-102376770D01*
X181716217Y-102411975D01*
X181676705Y-102453052D01*
X181632056Y-102498797D01*
X181583416Y-102548007D01*
X181544723Y-102586745D01*
X181300120Y-102830541D01*
X181300120Y-102983190D01*
X181300120Y-103135839D01*
X181351746Y-103187069D01*
X181403372Y-103238300D01*
X181576536Y-103238300D01*
X181749700Y-103238300D01*
X181749678Y-103087805D01*
X181749656Y-102937310D01*
X181726341Y-102922070D01*
X181703837Y-102902674D01*
X181679345Y-102874283D01*
X181656762Y-102841959D01*
X181639986Y-102810763D01*
X181639165Y-102808837D01*
X181629310Y-102769987D01*
X181627551Y-102724569D01*
X181633586Y-102678733D01*
X181647112Y-102638629D01*
X181647591Y-102637657D01*
X181676137Y-102593229D01*
X181713963Y-102552739D01*
X181756324Y-102520994D01*
X181770503Y-102513248D01*
X181810748Y-102499960D01*
X181857914Y-102494398D01*
X181906093Y-102496586D01*
X181949378Y-102506546D01*
X181963562Y-102512495D01*
X182000149Y-102535989D01*
X182036619Y-102568645D01*
X182067954Y-102605439D01*
X182086616Y-102635818D01*
X182094398Y-102659180D01*
X181867810Y-102659180D01*
X181833615Y-102662246D01*
X181811558Y-102672815D01*
X181799543Y-102692938D01*
X181795475Y-102724669D01*
X181795420Y-102730114D01*
X181797195Y-102755769D01*
X181801728Y-102776598D01*
X181805149Y-102783872D01*
X181823145Y-102797093D01*
X181849691Y-102804073D01*
X181879467Y-102804803D01*
X181907150Y-102799272D01*
X181927417Y-102787472D01*
X181930303Y-102784103D01*
X181938086Y-102763997D01*
X181940636Y-102736491D01*
X181938249Y-102707720D01*
X181931226Y-102683820D01*
X181924960Y-102674420D01*
X181910276Y-102664565D01*
X181888819Y-102659965D01*
X181867810Y-102659180D01*
X182094398Y-102659180D01*
X182100912Y-102678737D01*
X182106798Y-102727340D01*
X182103826Y-102774889D01*
X182097572Y-102800200D01*
X182081662Y-102835140D01*
X182058849Y-102870754D01*
X182032921Y-102901815D01*
X182009279Y-102922070D01*
X181985964Y-102937310D01*
X181985942Y-103087805D01*
X181985920Y-103238300D01*
X182186149Y-103238300D01*
X182386379Y-103238300D01*
X182437609Y-103186674D01*
X182488840Y-103135048D01*
X182488840Y-102982794D01*
X182488840Y-102830541D01*
X182244237Y-102586745D01*
X182193341Y-102535717D01*
X182145572Y-102487243D01*
X182102073Y-102442528D01*
X182063991Y-102402776D01*
X182032471Y-102369191D01*
X182008659Y-102342976D01*
X181993700Y-102325337D01*
X181988967Y-102318430D01*
X181984076Y-102298623D01*
X181980587Y-102267446D01*
X181978500Y-102228704D01*
X181977815Y-102186205D01*
X181978532Y-102143752D01*
X181980652Y-102105151D01*
X181984174Y-102074209D01*
X181988957Y-102055050D01*
X181997043Y-102043380D01*
X182014536Y-102022708D01*
X182039926Y-101994663D01*
X182071701Y-101960877D01*
X182108352Y-101922979D01*
X182148368Y-101882602D01*
X182152787Y-101878201D01*
X182305960Y-101725873D01*
X182305960Y-101687293D01*
X182312929Y-101642946D01*
X182332360Y-101597630D01*
X182362042Y-101554486D01*
X182399763Y-101516658D01*
X182443309Y-101487287D01*
X182448683Y-101484548D01*
X182488928Y-101471260D01*
X182536094Y-101465698D01*
X182536094Y-101465698D01*
G36*
X181874469Y-106673681D02*
X181955315Y-106673804D01*
X182034484Y-106674172D01*
X182110439Y-106674785D01*
X182181645Y-106675644D01*
X182246565Y-106676749D01*
X182303665Y-106678100D01*
X182351407Y-106679699D01*
X182388258Y-106681545D01*
X182412680Y-106683639D01*
X182422410Y-106685564D01*
X182436554Y-106694923D01*
X182458533Y-106713292D01*
X182486183Y-106738489D01*
X182517335Y-106768328D01*
X182549824Y-106800626D01*
X182581484Y-106833198D01*
X182610148Y-106863862D01*
X182633650Y-106890432D01*
X182649824Y-106910726D01*
X182650073Y-106911140D01*
X182333070Y-106911140D01*
X181868221Y-106911140D01*
X181403372Y-106911140D01*
X181351746Y-106962371D01*
X181300120Y-107013601D01*
X181300120Y-107192684D01*
X181300120Y-107371768D01*
X181351351Y-107423394D01*
X181375358Y-107447286D01*
X181392321Y-107462364D01*
X181405906Y-107470656D01*
X181419780Y-107474188D01*
X181437609Y-107474988D01*
X181444696Y-107474998D01*
X181469693Y-107474183D01*
X181484776Y-107470334D01*
X181495243Y-107461293D01*
X181502050Y-107451661D01*
X181523443Y-107426993D01*
X181554045Y-107401557D01*
X181588561Y-107379257D01*
X181620302Y-107364480D01*
X181673092Y-107353600D01*
X181727326Y-107356404D01*
X181780152Y-107371955D01*
X181828717Y-107399316D01*
X181870166Y-107437551D01*
X181879835Y-107449709D01*
X181898290Y-107474600D01*
X182111459Y-107474810D01*
X182324627Y-107475020D01*
X182376254Y-107423789D01*
X182427880Y-107372559D01*
X182427880Y-107189679D01*
X182427880Y-107006800D01*
X182380475Y-106958970D01*
X182333070Y-106911140D01*
X182650073Y-106911140D01*
X182656102Y-106921161D01*
X182658766Y-106936190D01*
X182660904Y-106964033D01*
X182662531Y-107002405D01*
X182663660Y-107049022D01*
X182664304Y-107101600D01*
X182664478Y-107157856D01*
X182664195Y-107215503D01*
X182663470Y-107272260D01*
X182662314Y-107325840D01*
X182660743Y-107373961D01*
X182658770Y-107414337D01*
X182656409Y-107444686D01*
X182653672Y-107462721D01*
X182652842Y-107465252D01*
X182643161Y-107480298D01*
X182624578Y-107503250D01*
X182609121Y-107520740D01*
X181692550Y-107520740D01*
X181658355Y-107523807D01*
X181636298Y-107534375D01*
X181624283Y-107554498D01*
X181620215Y-107586229D01*
X181620160Y-107591674D01*
X181621935Y-107617329D01*
X181626468Y-107638158D01*
X181629889Y-107645432D01*
X181647885Y-107658653D01*
X181674431Y-107665633D01*
X181704207Y-107666363D01*
X181731890Y-107660832D01*
X181752157Y-107649032D01*
X181755043Y-107645662D01*
X181762826Y-107625557D01*
X181765376Y-107598051D01*
X181762989Y-107569280D01*
X181755966Y-107545380D01*
X181749700Y-107535980D01*
X181735016Y-107526125D01*
X181713559Y-107521525D01*
X181692550Y-107520740D01*
X182609121Y-107520740D01*
X182599295Y-107531858D01*
X182569509Y-107563873D01*
X182537423Y-107597047D01*
X182505234Y-107629128D01*
X182475144Y-107657869D01*
X182449352Y-107681020D01*
X182430058Y-107696331D01*
X182422410Y-107700864D01*
X182411799Y-107703891D01*
X182394833Y-107706313D01*
X182370081Y-107708185D01*
X182336113Y-107709561D01*
X182291498Y-107710495D01*
X182234806Y-107711042D01*
X182164605Y-107711254D01*
X182148090Y-107711262D01*
X181898290Y-107711284D01*
X181883050Y-107734599D01*
X181863392Y-107757387D01*
X181834643Y-107782068D01*
X181801828Y-107804790D01*
X181769972Y-107821704D01*
X181768678Y-107822251D01*
X181736773Y-107830502D01*
X181697296Y-107833645D01*
X181657035Y-107831683D01*
X181622775Y-107824614D01*
X181616422Y-107822251D01*
X181584723Y-107805680D01*
X181551845Y-107783131D01*
X181522813Y-107758456D01*
X181502652Y-107735504D01*
X181502050Y-107734599D01*
X181486810Y-107711284D01*
X181413011Y-107711262D01*
X181378419Y-107710435D01*
X181347387Y-107708239D01*
X181324589Y-107705065D01*
X181317761Y-107703244D01*
X181304425Y-107694782D01*
X181282949Y-107677189D01*
X181255473Y-107652585D01*
X181224132Y-107623092D01*
X181191067Y-107590832D01*
X181158414Y-107557924D01*
X181128312Y-107526492D01*
X181102899Y-107498656D01*
X181084313Y-107476538D01*
X181074692Y-107462258D01*
X181074545Y-107461930D01*
X181071317Y-107446663D01*
X181068613Y-107418480D01*
X181066434Y-107379695D01*
X181064782Y-107332623D01*
X181063656Y-107279579D01*
X181063059Y-107222877D01*
X181062991Y-107164833D01*
X181063454Y-107107760D01*
X181064448Y-107053974D01*
X181065976Y-107005790D01*
X181068038Y-106965521D01*
X181070635Y-106935483D01*
X181073768Y-106917991D01*
X181074276Y-106916610D01*
X181083892Y-106901989D01*
X181102763Y-106879595D01*
X181128624Y-106851632D01*
X181159211Y-106820302D01*
X181192257Y-106787808D01*
X181225498Y-106756354D01*
X181256667Y-106728142D01*
X181283499Y-106705375D01*
X181303729Y-106690257D01*
X181311585Y-106685844D01*
X181324744Y-106683538D01*
X181351583Y-106681473D01*
X181390565Y-106679650D01*
X181440156Y-106678069D01*
X181498819Y-106676729D01*
X181565019Y-106675633D01*
X181637219Y-106674779D01*
X181713885Y-106674169D01*
X181793480Y-106673803D01*
X181874469Y-106673681D01*
X181874469Y-106673681D01*
X181874469Y-106673681D01*
G37*
X181874469Y-106673681D02*
X181955315Y-106673804D01*
X182034484Y-106674172D01*
X182110439Y-106674785D01*
X182181645Y-106675644D01*
X182246565Y-106676749D01*
X182303665Y-106678100D01*
X182351407Y-106679699D01*
X182388258Y-106681545D01*
X182412680Y-106683639D01*
X182422410Y-106685564D01*
X182436554Y-106694923D01*
X182458533Y-106713292D01*
X182486183Y-106738489D01*
X182517335Y-106768328D01*
X182549824Y-106800626D01*
X182581484Y-106833198D01*
X182610148Y-106863862D01*
X182633650Y-106890432D01*
X182649824Y-106910726D01*
X182650073Y-106911140D01*
X182333070Y-106911140D01*
X181868221Y-106911140D01*
X181403372Y-106911140D01*
X181351746Y-106962371D01*
X181300120Y-107013601D01*
X181300120Y-107192684D01*
X181300120Y-107371768D01*
X181351351Y-107423394D01*
X181375358Y-107447286D01*
X181392321Y-107462364D01*
X181405906Y-107470656D01*
X181419780Y-107474188D01*
X181437609Y-107474988D01*
X181444696Y-107474998D01*
X181469693Y-107474183D01*
X181484776Y-107470334D01*
X181495243Y-107461293D01*
X181502050Y-107451661D01*
X181523443Y-107426993D01*
X181554045Y-107401557D01*
X181588561Y-107379257D01*
X181620302Y-107364480D01*
X181673092Y-107353600D01*
X181727326Y-107356404D01*
X181780152Y-107371955D01*
X181828717Y-107399316D01*
X181870166Y-107437551D01*
X181879835Y-107449709D01*
X181898290Y-107474600D01*
X182111459Y-107474810D01*
X182324627Y-107475020D01*
X182376254Y-107423789D01*
X182427880Y-107372559D01*
X182427880Y-107189679D01*
X182427880Y-107006800D01*
X182380475Y-106958970D01*
X182333070Y-106911140D01*
X182650073Y-106911140D01*
X182656102Y-106921161D01*
X182658766Y-106936190D01*
X182660904Y-106964033D01*
X182662531Y-107002405D01*
X182663660Y-107049022D01*
X182664304Y-107101600D01*
X182664478Y-107157856D01*
X182664195Y-107215503D01*
X182663470Y-107272260D01*
X182662314Y-107325840D01*
X182660743Y-107373961D01*
X182658770Y-107414337D01*
X182656409Y-107444686D01*
X182653672Y-107462721D01*
X182652842Y-107465252D01*
X182643161Y-107480298D01*
X182624578Y-107503250D01*
X182609121Y-107520740D01*
X181692550Y-107520740D01*
X181658355Y-107523807D01*
X181636298Y-107534375D01*
X181624283Y-107554498D01*
X181620215Y-107586229D01*
X181620160Y-107591674D01*
X181621935Y-107617329D01*
X181626468Y-107638158D01*
X181629889Y-107645432D01*
X181647885Y-107658653D01*
X181674431Y-107665633D01*
X181704207Y-107666363D01*
X181731890Y-107660832D01*
X181752157Y-107649032D01*
X181755043Y-107645662D01*
X181762826Y-107625557D01*
X181765376Y-107598051D01*
X181762989Y-107569280D01*
X181755966Y-107545380D01*
X181749700Y-107535980D01*
X181735016Y-107526125D01*
X181713559Y-107521525D01*
X181692550Y-107520740D01*
X182609121Y-107520740D01*
X182599295Y-107531858D01*
X182569509Y-107563873D01*
X182537423Y-107597047D01*
X182505234Y-107629128D01*
X182475144Y-107657869D01*
X182449352Y-107681020D01*
X182430058Y-107696331D01*
X182422410Y-107700864D01*
X182411799Y-107703891D01*
X182394833Y-107706313D01*
X182370081Y-107708185D01*
X182336113Y-107709561D01*
X182291498Y-107710495D01*
X182234806Y-107711042D01*
X182164605Y-107711254D01*
X182148090Y-107711262D01*
X181898290Y-107711284D01*
X181883050Y-107734599D01*
X181863392Y-107757387D01*
X181834643Y-107782068D01*
X181801828Y-107804790D01*
X181769972Y-107821704D01*
X181768678Y-107822251D01*
X181736773Y-107830502D01*
X181697296Y-107833645D01*
X181657035Y-107831683D01*
X181622775Y-107824614D01*
X181616422Y-107822251D01*
X181584723Y-107805680D01*
X181551845Y-107783131D01*
X181522813Y-107758456D01*
X181502652Y-107735504D01*
X181502050Y-107734599D01*
X181486810Y-107711284D01*
X181413011Y-107711262D01*
X181378419Y-107710435D01*
X181347387Y-107708239D01*
X181324589Y-107705065D01*
X181317761Y-107703244D01*
X181304425Y-107694782D01*
X181282949Y-107677189D01*
X181255473Y-107652585D01*
X181224132Y-107623092D01*
X181191067Y-107590832D01*
X181158414Y-107557924D01*
X181128312Y-107526492D01*
X181102899Y-107498656D01*
X181084313Y-107476538D01*
X181074692Y-107462258D01*
X181074545Y-107461930D01*
X181071317Y-107446663D01*
X181068613Y-107418480D01*
X181066434Y-107379695D01*
X181064782Y-107332623D01*
X181063656Y-107279579D01*
X181063059Y-107222877D01*
X181062991Y-107164833D01*
X181063454Y-107107760D01*
X181064448Y-107053974D01*
X181065976Y-107005790D01*
X181068038Y-106965521D01*
X181070635Y-106935483D01*
X181073768Y-106917991D01*
X181074276Y-106916610D01*
X181083892Y-106901989D01*
X181102763Y-106879595D01*
X181128624Y-106851632D01*
X181159211Y-106820302D01*
X181192257Y-106787808D01*
X181225498Y-106756354D01*
X181256667Y-106728142D01*
X181283499Y-106705375D01*
X181303729Y-106690257D01*
X181311585Y-106685844D01*
X181324744Y-106683538D01*
X181351583Y-106681473D01*
X181390565Y-106679650D01*
X181440156Y-106678069D01*
X181498819Y-106676729D01*
X181565019Y-106675633D01*
X181637219Y-106674779D01*
X181713885Y-106674169D01*
X181793480Y-106673803D01*
X181874469Y-106673681D01*
X181874469Y-106673681D01*
G36*
X181186916Y-105525027D02*
X181240002Y-105532353D01*
X181291066Y-105553120D01*
X181318862Y-105571467D01*
X181341796Y-105591238D01*
X181362611Y-105612684D01*
X181369295Y-105620909D01*
X181387750Y-105645800D01*
X181801135Y-105646010D01*
X182214520Y-105646220D01*
X182214520Y-105691940D01*
X181182010Y-105691940D01*
X181147815Y-105695007D01*
X181125758Y-105705575D01*
X181113743Y-105725698D01*
X181109675Y-105757429D01*
X181109620Y-105762874D01*
X181111395Y-105788529D01*
X181115928Y-105809358D01*
X181119349Y-105816632D01*
X181137345Y-105829853D01*
X181163891Y-105836833D01*
X181193667Y-105837563D01*
X181221350Y-105832032D01*
X181241617Y-105820232D01*
X181244503Y-105816862D01*
X181252286Y-105796757D01*
X181254836Y-105769251D01*
X181252449Y-105740480D01*
X181245426Y-105716580D01*
X181239160Y-105707180D01*
X181224476Y-105697325D01*
X181203019Y-105692725D01*
X181182010Y-105691940D01*
X182214520Y-105691940D01*
X182214520Y-105764330D01*
X182214520Y-105882440D01*
X181801135Y-105882462D01*
X181387750Y-105882484D01*
X181372510Y-105905799D01*
X181352852Y-105928587D01*
X181324103Y-105953268D01*
X181291288Y-105975990D01*
X181259432Y-105992904D01*
X181258138Y-105993451D01*
X181216865Y-106003908D01*
X181169699Y-106005114D01*
X181122625Y-105997360D01*
X181089796Y-105985265D01*
X181041660Y-105954381D01*
X180998707Y-105912933D01*
X180965609Y-105865559D01*
X180961791Y-105858243D01*
X180945142Y-105808723D01*
X180940996Y-105755247D01*
X180949355Y-105702573D01*
X180961791Y-105670417D01*
X180994713Y-105618933D01*
X181035705Y-105578093D01*
X181082748Y-105548456D01*
X181133825Y-105530581D01*
X181186916Y-105525027D01*
X181186916Y-105525027D01*
X181186916Y-105525027D01*
G37*
X181186916Y-105525027D02*
X181240002Y-105532353D01*
X181291066Y-105553120D01*
X181318862Y-105571467D01*
X181341796Y-105591238D01*
X181362611Y-105612684D01*
X181369295Y-105620909D01*
X181387750Y-105645800D01*
X181801135Y-105646010D01*
X182214520Y-105646220D01*
X182214520Y-105691940D01*
X181182010Y-105691940D01*
X181147815Y-105695007D01*
X181125758Y-105705575D01*
X181113743Y-105725698D01*
X181109675Y-105757429D01*
X181109620Y-105762874D01*
X181111395Y-105788529D01*
X181115928Y-105809358D01*
X181119349Y-105816632D01*
X181137345Y-105829853D01*
X181163891Y-105836833D01*
X181193667Y-105837563D01*
X181221350Y-105832032D01*
X181241617Y-105820232D01*
X181244503Y-105816862D01*
X181252286Y-105796757D01*
X181254836Y-105769251D01*
X181252449Y-105740480D01*
X181245426Y-105716580D01*
X181239160Y-105707180D01*
X181224476Y-105697325D01*
X181203019Y-105692725D01*
X181182010Y-105691940D01*
X182214520Y-105691940D01*
X182214520Y-105764330D01*
X182214520Y-105882440D01*
X181801135Y-105882462D01*
X181387750Y-105882484D01*
X181372510Y-105905799D01*
X181352852Y-105928587D01*
X181324103Y-105953268D01*
X181291288Y-105975990D01*
X181259432Y-105992904D01*
X181258138Y-105993451D01*
X181216865Y-106003908D01*
X181169699Y-106005114D01*
X181122625Y-105997360D01*
X181089796Y-105985265D01*
X181041660Y-105954381D01*
X180998707Y-105912933D01*
X180965609Y-105865559D01*
X180961791Y-105858243D01*
X180945142Y-105808723D01*
X180940996Y-105755247D01*
X180949355Y-105702573D01*
X180961791Y-105670417D01*
X180994713Y-105618933D01*
X181035705Y-105578093D01*
X181082748Y-105548456D01*
X181133825Y-105530581D01*
X181186916Y-105525027D01*
X181186916Y-105525027D01*
D20*
X142958266Y-113342420D02*
G75*
G03X142958266Y-113342420I-197566J0D01*
G01*
D13*
X139827000Y-108167000D02*
X142367000Y-108167000D01*
X142367000Y-108167000D02*
X142367000Y-112767000D01*
X142367000Y-112767000D02*
X142097000Y-113067000D01*
X142097000Y-113067000D02*
X139827000Y-113067000D01*
X139827000Y-113067000D02*
X139827000Y-108167000D01*
D20*
X141929566Y-112395000D02*
G75*
G03X141929566Y-112395000I-197566J0D01*
G01*
D21*
X150963381Y-113442238D02*
X150963381Y-112823190D01*
X151344333Y-113156524D01*
X151344333Y-113013666D01*
X151391952Y-112918428D01*
X151439571Y-112870809D01*
X151534810Y-112823190D01*
X151772905Y-112823190D01*
X151868143Y-112870809D01*
X151915762Y-112918428D01*
X151963381Y-113013666D01*
X151963381Y-113299381D01*
X151915762Y-113394619D01*
X151868143Y-113442238D01*
X151868143Y-112394619D02*
X151915762Y-112347000D01*
X151963381Y-112394619D01*
X151915762Y-112442238D01*
X151868143Y-112394619D01*
X151963381Y-112394619D01*
X150963381Y-112013667D02*
X150963381Y-111394619D01*
X151344333Y-111727953D01*
X151344333Y-111585095D01*
X151391952Y-111489857D01*
X151439571Y-111442238D01*
X151534810Y-111394619D01*
X151772905Y-111394619D01*
X151868143Y-111442238D01*
X151915762Y-111489857D01*
X151963381Y-111585095D01*
X151963381Y-111870810D01*
X151915762Y-111966048D01*
X151868143Y-112013667D01*
X150963381Y-111108905D02*
X151963381Y-110775572D01*
X150963381Y-110442238D01*
X150915762Y-109394619D02*
X152201476Y-110251762D01*
X150963381Y-108585095D02*
X150963381Y-109061286D01*
X151439571Y-109108905D01*
X151391952Y-109061286D01*
X151344333Y-108966048D01*
X151344333Y-108727952D01*
X151391952Y-108632714D01*
X151439571Y-108585095D01*
X151534810Y-108537476D01*
X151772905Y-108537476D01*
X151868143Y-108585095D01*
X151915762Y-108632714D01*
X151963381Y-108727952D01*
X151963381Y-108966048D01*
X151915762Y-109061286D01*
X151868143Y-109108905D01*
X151868143Y-108108905D02*
X151915762Y-108061286D01*
X151963381Y-108108905D01*
X151915762Y-108156524D01*
X151868143Y-108108905D01*
X151963381Y-108108905D01*
X150963381Y-107442239D02*
X150963381Y-107347000D01*
X151011000Y-107251762D01*
X151058619Y-107204143D01*
X151153857Y-107156524D01*
X151344333Y-107108905D01*
X151582429Y-107108905D01*
X151772905Y-107156524D01*
X151868143Y-107204143D01*
X151915762Y-107251762D01*
X151963381Y-107347000D01*
X151963381Y-107442239D01*
X151915762Y-107537477D01*
X151868143Y-107585096D01*
X151772905Y-107632715D01*
X151582429Y-107680334D01*
X151344333Y-107680334D01*
X151153857Y-107632715D01*
X151058619Y-107585096D01*
X151011000Y-107537477D01*
X150963381Y-107442239D01*
X150963381Y-106823191D02*
X151963381Y-106489858D01*
X150963381Y-106156524D01*
X151963381Y-105299381D02*
X151963381Y-105870810D01*
X151963381Y-105585096D02*
X150963381Y-105585096D01*
X151106238Y-105680334D01*
X151201476Y-105775572D01*
X151249095Y-105870810D01*
D12*
X145732500Y-113051166D02*
X145774833Y-113093500D01*
X145817167Y-113220500D01*
X145817167Y-113305166D01*
X145774833Y-113432166D01*
X145690167Y-113516833D01*
X145605500Y-113559166D01*
X145436167Y-113601500D01*
X145309167Y-113601500D01*
X145139833Y-113559166D01*
X145055167Y-113516833D01*
X144970500Y-113432166D01*
X144928167Y-113305166D01*
X144928167Y-113220500D01*
X144970500Y-113093500D01*
X145012833Y-113051166D01*
X145817167Y-112204500D02*
X145817167Y-112712500D01*
X145817167Y-112458500D02*
X144928167Y-112458500D01*
X145055167Y-112543166D01*
X145139833Y-112627833D01*
X145182167Y-112712500D01*
X148399500Y-113051166D02*
X148441833Y-113093500D01*
X148484167Y-113220500D01*
X148484167Y-113305166D01*
X148441833Y-113432166D01*
X148357167Y-113516833D01*
X148272500Y-113559166D01*
X148103167Y-113601500D01*
X147976167Y-113601500D01*
X147806833Y-113559166D01*
X147722167Y-113516833D01*
X147637500Y-113432166D01*
X147595167Y-113305166D01*
X147595167Y-113220500D01*
X147637500Y-113093500D01*
X147679833Y-113051166D01*
X147679833Y-112712500D02*
X147637500Y-112670166D01*
X147595167Y-112585500D01*
X147595167Y-112373833D01*
X147637500Y-112289166D01*
X147679833Y-112246833D01*
X147764500Y-112204500D01*
X147849167Y-112204500D01*
X147976167Y-112246833D01*
X148484167Y-112754833D01*
X148484167Y-112204500D01*
D13*
X149805571Y-102386190D02*
X149866048Y-102446666D01*
X149926524Y-102628095D01*
X149926524Y-102749047D01*
X149866048Y-102930475D01*
X149745095Y-103051428D01*
X149624143Y-103111904D01*
X149382238Y-103172380D01*
X149200810Y-103172380D01*
X148958905Y-103111904D01*
X148837952Y-103051428D01*
X148717000Y-102930475D01*
X148656524Y-102749047D01*
X148656524Y-102628095D01*
X148717000Y-102446666D01*
X148777476Y-102386190D01*
X149563667Y-101902380D02*
X149563667Y-101297618D01*
X149926524Y-102023333D02*
X148656524Y-101599999D01*
X149926524Y-101176666D01*
X149926524Y-100753333D02*
X148656524Y-100753333D01*
X149926524Y-100027619D01*
X148656524Y-100027619D01*
X149926524Y-98757619D02*
X149926524Y-99483333D01*
X149926524Y-99120476D02*
X148656524Y-99120476D01*
X148837952Y-99241428D01*
X148958905Y-99362381D01*
X149019381Y-99483333D01*
X169291000Y-113157000D02*
X169170048Y-113096524D01*
X168988619Y-113096524D01*
X168807191Y-113157000D01*
X168686238Y-113277952D01*
X168625762Y-113398905D01*
X168565286Y-113640810D01*
X168565286Y-113822238D01*
X168625762Y-114064143D01*
X168686238Y-114185095D01*
X168807191Y-114306048D01*
X168988619Y-114366524D01*
X169109571Y-114366524D01*
X169291000Y-114306048D01*
X169351476Y-114245571D01*
X169351476Y-113822238D01*
X169109571Y-113822238D01*
X169895762Y-114366524D02*
X169895762Y-113096524D01*
X170379571Y-113096524D01*
X170500524Y-113157000D01*
X170561000Y-113217476D01*
X170621476Y-113338429D01*
X170621476Y-113519857D01*
X170561000Y-113640810D01*
X170500524Y-113701286D01*
X170379571Y-113761762D01*
X169895762Y-113761762D01*
X171165762Y-114366524D02*
X171165762Y-113096524D01*
X172012429Y-113096524D02*
X172254333Y-113096524D01*
X172375286Y-113157000D01*
X172496238Y-113277952D01*
X172556714Y-113519857D01*
X172556714Y-113943190D01*
X172496238Y-114185095D01*
X172375286Y-114306048D01*
X172254333Y-114366524D01*
X172012429Y-114366524D01*
X171891476Y-114306048D01*
X171770524Y-114185095D01*
X171710048Y-113943190D01*
X171710048Y-113519857D01*
X171770524Y-113277952D01*
X171891476Y-113157000D01*
X172012429Y-113096524D01*
X172980048Y-113096524D02*
X173766238Y-113096524D01*
X173342905Y-113580333D01*
X173524333Y-113580333D01*
X173645286Y-113640810D01*
X173705762Y-113701286D01*
X173766238Y-113822238D01*
X173766238Y-114124619D01*
X173705762Y-114245571D01*
X173645286Y-114306048D01*
X173524333Y-114366524D01*
X173161476Y-114366524D01*
X173040524Y-114306048D01*
X172980048Y-114245571D01*
X174008143Y-114487476D02*
X174975762Y-114487476D01*
X175882905Y-114366524D02*
X175278143Y-114366524D01*
X175278143Y-113096524D01*
X176306238Y-114366524D02*
X176306238Y-113096524D01*
X176911000Y-114366524D02*
X176911000Y-113096524D01*
X177334333Y-114003667D01*
X177757667Y-113096524D01*
X177757667Y-114366524D01*
X178362429Y-113701286D02*
X178785762Y-113701286D01*
X178967191Y-114366524D02*
X178362429Y-114366524D01*
X178362429Y-113096524D01*
X178967191Y-113096524D01*
X180176715Y-114366524D02*
X179451001Y-114366524D01*
X179813858Y-114366524D02*
X179813858Y-113096524D01*
X179692906Y-113277952D01*
X179571953Y-113398905D01*
X179451001Y-113459381D01*
D11*
X178784286Y-107878619D02*
X178831905Y-107831000D01*
X178927143Y-107783381D01*
X179165239Y-107783381D01*
X179260477Y-107831000D01*
X179308096Y-107878619D01*
X179355715Y-107973857D01*
X179355715Y-108069095D01*
X179308096Y-108211952D01*
X178736667Y-108783381D01*
X179355715Y-108783381D01*
X179355715Y-110434381D02*
X178784286Y-110434381D01*
X179070000Y-110434381D02*
X179070000Y-109434381D01*
X178974762Y-109577238D01*
X178879524Y-109672476D01*
X178784286Y-109720095D01*
D13*
X169291000Y-104140000D02*
X169170048Y-104079524D01*
X168988619Y-104079524D01*
X168807191Y-104140000D01*
X168686238Y-104260952D01*
X168625762Y-104381905D01*
X168565286Y-104623810D01*
X168565286Y-104805238D01*
X168625762Y-105047143D01*
X168686238Y-105168095D01*
X168807191Y-105289048D01*
X168988619Y-105349524D01*
X169109571Y-105349524D01*
X169291000Y-105289048D01*
X169351476Y-105228571D01*
X169351476Y-104805238D01*
X169109571Y-104805238D01*
X169895762Y-105349524D02*
X169895762Y-104079524D01*
X170379571Y-104079524D01*
X170500524Y-104140000D01*
X170561000Y-104200476D01*
X170621476Y-104321429D01*
X170621476Y-104502857D01*
X170561000Y-104623810D01*
X170500524Y-104684286D01*
X170379571Y-104744762D01*
X169895762Y-104744762D01*
X171165762Y-105349524D02*
X171165762Y-104079524D01*
X172012429Y-104079524D02*
X172254333Y-104079524D01*
X172375286Y-104140000D01*
X172496238Y-104260952D01*
X172556714Y-104502857D01*
X172556714Y-104926190D01*
X172496238Y-105168095D01*
X172375286Y-105289048D01*
X172254333Y-105349524D01*
X172012429Y-105349524D01*
X171891476Y-105289048D01*
X171770524Y-105168095D01*
X171710048Y-104926190D01*
X171710048Y-104502857D01*
X171770524Y-104260952D01*
X171891476Y-104140000D01*
X172012429Y-104079524D01*
X172980048Y-104079524D02*
X173766238Y-104079524D01*
X173342905Y-104563333D01*
X173524333Y-104563333D01*
X173645286Y-104623810D01*
X173705762Y-104684286D01*
X173766238Y-104805238D01*
X173766238Y-105107619D01*
X173705762Y-105228571D01*
X173645286Y-105289048D01*
X173524333Y-105349524D01*
X173161476Y-105349524D01*
X173040524Y-105289048D01*
X172980048Y-105228571D01*
X174008143Y-105470476D02*
X174975762Y-105470476D01*
X175882905Y-105349524D02*
X175278143Y-105349524D01*
X175278143Y-104079524D01*
X176306238Y-105349524D02*
X176306238Y-104079524D01*
X176911000Y-105349524D02*
X176911000Y-104079524D01*
X177334333Y-104986667D01*
X177757667Y-104079524D01*
X177757667Y-105349524D01*
X178362429Y-104684286D02*
X178785762Y-104684286D01*
X178967191Y-105349524D02*
X178362429Y-105349524D01*
X178362429Y-104079524D01*
X178967191Y-104079524D01*
X179451001Y-104200476D02*
X179511477Y-104140000D01*
X179632429Y-104079524D01*
X179934810Y-104079524D01*
X180055763Y-104140000D01*
X180116239Y-104200476D01*
X180176715Y-104321429D01*
X180176715Y-104442381D01*
X180116239Y-104623810D01*
X179390525Y-105349524D01*
X180176715Y-105349524D01*
D11*
X179355715Y-99893381D02*
X178784286Y-99893381D01*
X179070000Y-99893381D02*
X179070000Y-98893381D01*
X178974762Y-99036238D01*
X178879524Y-99131476D01*
X178784286Y-99179095D01*
X178784286Y-100639619D02*
X178831905Y-100592000D01*
X178927143Y-100544381D01*
X179165239Y-100544381D01*
X179260477Y-100592000D01*
X179308096Y-100639619D01*
X179355715Y-100734857D01*
X179355715Y-100830095D01*
X179308096Y-100972952D01*
X178736667Y-101544381D01*
X179355715Y-101544381D01*
D22*
X127381001Y-100166714D02*
X127381001Y-99404714D01*
X127671286Y-99404714D01*
X127743858Y-99441000D01*
X127780143Y-99477286D01*
X127816429Y-99549857D01*
X127816429Y-99658714D01*
X127780143Y-99731286D01*
X127743858Y-99767571D01*
X127671286Y-99803857D01*
X127381001Y-99803857D01*
X128070429Y-99404714D02*
X128251858Y-100166714D01*
X128397001Y-99622429D01*
X128542143Y-100166714D01*
X128723572Y-99404714D01*
X129449286Y-100166714D02*
X129195286Y-99803857D01*
X129013858Y-100166714D02*
X129013858Y-99404714D01*
X129304143Y-99404714D01*
X129376715Y-99441000D01*
X129413000Y-99477286D01*
X129449286Y-99549857D01*
X129449286Y-99658714D01*
X129413000Y-99731286D01*
X129376715Y-99767571D01*
X129304143Y-99803857D01*
X129013858Y-99803857D01*
X130138715Y-100166714D02*
X129775858Y-100166714D01*
X129775858Y-99404714D01*
X130392715Y-99767571D02*
X130646715Y-99767571D01*
X130755572Y-100166714D02*
X130392715Y-100166714D01*
X130392715Y-99404714D01*
X130755572Y-99404714D01*
X131082144Y-100166714D02*
X131082144Y-99404714D01*
X131263572Y-99404714D01*
X131372429Y-99441000D01*
X131445001Y-99513571D01*
X131481286Y-99586143D01*
X131517572Y-99731286D01*
X131517572Y-99840143D01*
X131481286Y-99985286D01*
X131445001Y-100057857D01*
X131372429Y-100130429D01*
X131263572Y-100166714D01*
X131082144Y-100166714D01*
X132243286Y-100166714D02*
X131807858Y-100166714D01*
X132025572Y-100166714D02*
X132025572Y-99404714D01*
X131953001Y-99513571D01*
X131880429Y-99586143D01*
X131807858Y-99622429D01*
D12*
X136122834Y-100732167D02*
X135826500Y-100308833D01*
X135614834Y-100732167D02*
X135614834Y-99843167D01*
X135953500Y-99843167D01*
X136038167Y-99885500D01*
X136080500Y-99927833D01*
X136122834Y-100012500D01*
X136122834Y-100139500D01*
X136080500Y-100224167D01*
X136038167Y-100266500D01*
X135953500Y-100308833D01*
X135614834Y-100308833D01*
X136969500Y-100732167D02*
X136461500Y-100732167D01*
X136715500Y-100732167D02*
X136715500Y-99843167D01*
X136630834Y-99970167D01*
X136546167Y-100054833D01*
X136461500Y-100097167D01*
X142980834Y-105685167D02*
X142684500Y-105261833D01*
X142472834Y-105685167D02*
X142472834Y-104796167D01*
X142811500Y-104796167D01*
X142896167Y-104838500D01*
X142938500Y-104880833D01*
X142980834Y-104965500D01*
X142980834Y-105092500D01*
X142938500Y-105177167D01*
X142896167Y-105219500D01*
X142811500Y-105261833D01*
X142472834Y-105261833D01*
X143319500Y-104880833D02*
X143361834Y-104838500D01*
X143446500Y-104796167D01*
X143658167Y-104796167D01*
X143742834Y-104838500D01*
X143785167Y-104880833D01*
X143827500Y-104965500D01*
X143827500Y-105050167D01*
X143785167Y-105177167D01*
X143277167Y-105685167D01*
X143827500Y-105685167D01*
X137562167Y-114575166D02*
X137138833Y-114871500D01*
X137562167Y-115083166D02*
X136673167Y-115083166D01*
X136673167Y-114744500D01*
X136715500Y-114659833D01*
X136757833Y-114617500D01*
X136842500Y-114575166D01*
X136969500Y-114575166D01*
X137054167Y-114617500D01*
X137096500Y-114659833D01*
X137138833Y-114744500D01*
X137138833Y-115083166D01*
X136673167Y-114278833D02*
X136673167Y-113728500D01*
X137011833Y-114024833D01*
X137011833Y-113897833D01*
X137054167Y-113813166D01*
X137096500Y-113770833D01*
X137181167Y-113728500D01*
X137392833Y-113728500D01*
X137477500Y-113770833D01*
X137519833Y-113813166D01*
X137562167Y-113897833D01*
X137562167Y-114151833D01*
X137519833Y-114236500D01*
X137477500Y-114278833D01*
X139043834Y-105685167D02*
X138747500Y-105261833D01*
X138535834Y-105685167D02*
X138535834Y-104796167D01*
X138874500Y-104796167D01*
X138959167Y-104838500D01*
X139001500Y-104880833D01*
X139043834Y-104965500D01*
X139043834Y-105092500D01*
X139001500Y-105177167D01*
X138959167Y-105219500D01*
X138874500Y-105261833D01*
X138535834Y-105261833D01*
X139805834Y-105092500D02*
X139805834Y-105685167D01*
X139594167Y-104753833D02*
X139382500Y-105388833D01*
X139932834Y-105388833D01*
X149203834Y-114829167D02*
X148907500Y-114405833D01*
X148695834Y-114829167D02*
X148695834Y-113940167D01*
X149034500Y-113940167D01*
X149119167Y-113982500D01*
X149161500Y-114024833D01*
X149203834Y-114109500D01*
X149203834Y-114236500D01*
X149161500Y-114321167D01*
X149119167Y-114363500D01*
X149034500Y-114405833D01*
X148695834Y-114405833D01*
X150008167Y-113940167D02*
X149584834Y-113940167D01*
X149542500Y-114363500D01*
X149584834Y-114321167D01*
X149669500Y-114278833D01*
X149881167Y-114278833D01*
X149965834Y-114321167D01*
X150008167Y-114363500D01*
X150050500Y-114448167D01*
X150050500Y-114659833D01*
X150008167Y-114744500D01*
X149965834Y-114786833D01*
X149881167Y-114829167D01*
X149669500Y-114829167D01*
X149584834Y-114786833D01*
X149542500Y-114744500D01*
X149658606Y-107323144D02*
X149149724Y-107233342D01*
X149299396Y-107682354D02*
X148670778Y-107053737D01*
X148910251Y-106814263D01*
X149000053Y-106784329D01*
X149059921Y-106784329D01*
X149149724Y-106814263D01*
X149239527Y-106904065D01*
X149269461Y-106993869D01*
X149269461Y-107053737D01*
X149239526Y-107143539D01*
X149000053Y-107383012D01*
X149568803Y-106155711D02*
X149449066Y-106275448D01*
X149419132Y-106365250D01*
X149419131Y-106425119D01*
X149449066Y-106574789D01*
X149538869Y-106724461D01*
X149778342Y-106963934D01*
X149868145Y-106993868D01*
X149928013Y-106993868D01*
X150017816Y-106963934D01*
X150137553Y-106844197D01*
X150167487Y-106754394D01*
X150167487Y-106694526D01*
X150137552Y-106604724D01*
X149987881Y-106455053D01*
X149898079Y-106425119D01*
X149838211Y-106425119D01*
X149748408Y-106455053D01*
X149628671Y-106574789D01*
X149598737Y-106664592D01*
X149598737Y-106724460D01*
X149628671Y-106814263D01*
X135233834Y-105812167D02*
X134937500Y-105388833D01*
X134725834Y-105812167D02*
X134725834Y-104923167D01*
X135064500Y-104923167D01*
X135149167Y-104965500D01*
X135191500Y-105007833D01*
X135233834Y-105092500D01*
X135233834Y-105219500D01*
X135191500Y-105304167D01*
X135149167Y-105346500D01*
X135064500Y-105388833D01*
X134725834Y-105388833D01*
X135530167Y-104923167D02*
X136122834Y-104923167D01*
X135741834Y-105812167D01*
X146917834Y-105685167D02*
X146621500Y-105261833D01*
X146409834Y-105685167D02*
X146409834Y-104796167D01*
X146748500Y-104796167D01*
X146833167Y-104838500D01*
X146875500Y-104880833D01*
X146917834Y-104965500D01*
X146917834Y-105092500D01*
X146875500Y-105177167D01*
X146833167Y-105219500D01*
X146748500Y-105261833D01*
X146409834Y-105261833D01*
X147425834Y-105177167D02*
X147341167Y-105134833D01*
X147298834Y-105092500D01*
X147256500Y-105007833D01*
X147256500Y-104965500D01*
X147298834Y-104880833D01*
X147341167Y-104838500D01*
X147425834Y-104796167D01*
X147595167Y-104796167D01*
X147679834Y-104838500D01*
X147722167Y-104880833D01*
X147764500Y-104965500D01*
X147764500Y-105007833D01*
X147722167Y-105092500D01*
X147679834Y-105134833D01*
X147595167Y-105177167D01*
X147425834Y-105177167D01*
X147341167Y-105219500D01*
X147298834Y-105261833D01*
X147256500Y-105346500D01*
X147256500Y-105515833D01*
X147298834Y-105600500D01*
X147341167Y-105642833D01*
X147425834Y-105685167D01*
X147595167Y-105685167D01*
X147679834Y-105642833D01*
X147722167Y-105600500D01*
X147764500Y-105515833D01*
X147764500Y-105346500D01*
X147722167Y-105261833D01*
X147679834Y-105219500D01*
X147595167Y-105177167D01*
D13*
X128046238Y-114427000D02*
X127925286Y-114366524D01*
X127743857Y-114366524D01*
X127562429Y-114427000D01*
X127441476Y-114547952D01*
X127381000Y-114668905D01*
X127320524Y-114910810D01*
X127320524Y-115092238D01*
X127381000Y-115334143D01*
X127441476Y-115455095D01*
X127562429Y-115576048D01*
X127743857Y-115636524D01*
X127864809Y-115636524D01*
X128046238Y-115576048D01*
X128106714Y-115515571D01*
X128106714Y-115092238D01*
X127864809Y-115092238D01*
X128651000Y-115636524D02*
X128651000Y-114366524D01*
X129134809Y-114366524D01*
X129255762Y-114427000D01*
X129316238Y-114487476D01*
X129376714Y-114608429D01*
X129376714Y-114789857D01*
X129316238Y-114910810D01*
X129255762Y-114971286D01*
X129134809Y-115031762D01*
X128651000Y-115031762D01*
X129921000Y-115636524D02*
X129921000Y-114366524D01*
X130767667Y-114366524D02*
X131009571Y-114366524D01*
X131130524Y-114427000D01*
X131251476Y-114547952D01*
X131311952Y-114789857D01*
X131311952Y-115213190D01*
X131251476Y-115455095D01*
X131130524Y-115576048D01*
X131009571Y-115636524D01*
X130767667Y-115636524D01*
X130646714Y-115576048D01*
X130525762Y-115455095D01*
X130465286Y-115213190D01*
X130465286Y-114789857D01*
X130525762Y-114547952D01*
X130646714Y-114427000D01*
X130767667Y-114366524D01*
X131735286Y-114366524D02*
X132521476Y-114366524D01*
X132098143Y-114850333D01*
X132279571Y-114850333D01*
X132400524Y-114910810D01*
X132461000Y-114971286D01*
X132521476Y-115092238D01*
X132521476Y-115394619D01*
X132461000Y-115515571D01*
X132400524Y-115576048D01*
X132279571Y-115636524D01*
X131916714Y-115636524D01*
X131795762Y-115576048D01*
X131735286Y-115515571D01*
X130537857Y-123129524D02*
X129812143Y-123129524D01*
X130175000Y-123129524D02*
X130175000Y-121859524D01*
X130054048Y-122040952D01*
X129933095Y-122161905D01*
X129812143Y-122222381D01*
X129812143Y-119440476D02*
X129872619Y-119380000D01*
X129993571Y-119319524D01*
X130295952Y-119319524D01*
X130416905Y-119380000D01*
X130477381Y-119440476D01*
X130537857Y-119561429D01*
X130537857Y-119682381D01*
X130477381Y-119863810D01*
X129751667Y-120589524D01*
X130537857Y-120589524D01*
D11*
X133762714Y-114560162D02*
X133800810Y-114598257D01*
X133838905Y-114712543D01*
X133838905Y-114788733D01*
X133800810Y-114903019D01*
X133724619Y-114979210D01*
X133648429Y-115017305D01*
X133496048Y-115055400D01*
X133381762Y-115055400D01*
X133229381Y-115017305D01*
X133153190Y-114979210D01*
X133077000Y-114903019D01*
X133038905Y-114788733D01*
X133038905Y-114712543D01*
X133077000Y-114598257D01*
X133115095Y-114560162D01*
X133610333Y-114255400D02*
X133610333Y-113874448D01*
X133838905Y-114331591D02*
X133038905Y-114064924D01*
X133838905Y-113798257D01*
X133838905Y-113531591D02*
X133038905Y-113531591D01*
X133838905Y-113074448D01*
X133038905Y-113074448D01*
X133915095Y-112883972D02*
X133915095Y-112274448D01*
X133038905Y-112198258D02*
X133038905Y-111741115D01*
X133838905Y-111969686D02*
X133038905Y-111969686D01*
X133838905Y-111055400D02*
X133838905Y-111512543D01*
X133838905Y-111283972D02*
X133038905Y-111283972D01*
X133153190Y-111360162D01*
X133229381Y-111436353D01*
X133267476Y-111512543D01*
D12*
X131032744Y-101134258D02*
X130613665Y-101972415D01*
X131451822Y-101553337D01*
X131032744Y-102391494D02*
X131661362Y-101762876D01*
X131811033Y-101912547D01*
X131870901Y-102032283D01*
X131870901Y-102152021D01*
X131840967Y-102241822D01*
X131751165Y-102391494D01*
X131661362Y-102481297D01*
X131511691Y-102571099D01*
X131421888Y-102601033D01*
X131302152Y-102601033D01*
X131182415Y-102541165D01*
X131032744Y-102391494D01*
X131661362Y-103020112D02*
X132289980Y-102391494D01*
X132439651Y-102541165D01*
X132499519Y-102660901D01*
X132499519Y-102780639D01*
X132469585Y-102870440D01*
X132379783Y-103020112D01*
X132289980Y-103109915D01*
X132140309Y-103199717D01*
X132050506Y-103229651D01*
X131930770Y-103229651D01*
X131811033Y-103169783D01*
X131661362Y-103020112D01*
X132619256Y-103978006D02*
X132260045Y-103618796D01*
X132439651Y-103798401D02*
X133068269Y-103169783D01*
X132918598Y-103199717D01*
X132798862Y-103199717D01*
X132709058Y-103169783D01*
X131362020Y-106603402D02*
X131332086Y-106513600D01*
X131242283Y-106423798D01*
X131122547Y-106363929D01*
X131002810Y-106363929D01*
X130913008Y-106393863D01*
X130763336Y-106483665D01*
X130673533Y-106573468D01*
X130583731Y-106723139D01*
X130553797Y-106812942D01*
X130553798Y-106932678D01*
X130613665Y-107052415D01*
X130673533Y-107112283D01*
X130793271Y-107172151D01*
X130853139Y-107172152D01*
X131062678Y-106962613D01*
X130942941Y-106842876D01*
X131062678Y-107501428D02*
X131691296Y-106872810D01*
X131421888Y-107860639D01*
X132050506Y-107232021D01*
X131721230Y-108159980D02*
X132349848Y-107531362D01*
X132499519Y-107681033D01*
X132559387Y-107800769D01*
X132559387Y-107920506D01*
X132529453Y-108010308D01*
X132439651Y-108159980D01*
X132349848Y-108249783D01*
X132200177Y-108339585D01*
X132110374Y-108369519D01*
X131990638Y-108369519D01*
X131870901Y-108309651D01*
X131721230Y-108159980D01*
X132679124Y-109117874D02*
X132319913Y-108758663D01*
X132499519Y-108938269D02*
X133128136Y-108309651D01*
X132978466Y-108339585D01*
X132858729Y-108339585D01*
X132768926Y-108309651D01*
X131047271Y-103561785D02*
X130628192Y-104399942D01*
X131466349Y-103980863D01*
X131406481Y-105178231D02*
X131496283Y-104669349D01*
X131047271Y-104819021D02*
X131675888Y-104190403D01*
X131915361Y-104429876D01*
X131945296Y-104519678D01*
X131945296Y-104579546D01*
X131915362Y-104669349D01*
X131825560Y-104759152D01*
X131735756Y-104789086D01*
X131675888Y-104789086D01*
X131586086Y-104759151D01*
X131346613Y-104519678D01*
X132005165Y-105118362D02*
X132214704Y-105327901D01*
X131975230Y-105746980D02*
X131675888Y-105447639D01*
X132304506Y-104819021D01*
X132603848Y-105118362D01*
X132783453Y-105896651D02*
X132573914Y-105687112D01*
X132244638Y-106016388D02*
X132873256Y-105387770D01*
X133172597Y-105687112D01*
X133112729Y-106884479D02*
X132753519Y-106525269D01*
X132933124Y-106704874D02*
X133561742Y-106076256D01*
X133412071Y-106106190D01*
X133292335Y-106106190D01*
X133202531Y-106076256D01*
D17*
D13*
X140121761Y-113411484D02*
X140121761Y-114439579D01*
X140182237Y-114560531D01*
X140242713Y-114621008D01*
X140363666Y-114681484D01*
X140605570Y-114681484D01*
X140726523Y-114621008D01*
X140786999Y-114560531D01*
X140847475Y-114439579D01*
X140847475Y-113411484D01*
X142117475Y-114681484D02*
X141391761Y-114681484D01*
X141754618Y-114681484D02*
X141754618Y-113411484D01*
X141633666Y-113592912D01*
X141512713Y-113713865D01*
X141391761Y-113774341D01*
D23*
X142095462Y-111273166D02*
X142095462Y-111636024D01*
X142095462Y-111454595D02*
X141460462Y-111454595D01*
X141551176Y-111515071D01*
X141611652Y-111575547D01*
X141641890Y-111636024D01*
X141460462Y-110698643D02*
X141460462Y-111001024D01*
X141762843Y-111031262D01*
X141732605Y-111001024D01*
X141702367Y-110940547D01*
X141702367Y-110789357D01*
X141732605Y-110728881D01*
X141762843Y-110698643D01*
X141823319Y-110668404D01*
X141974510Y-110668404D01*
X142034986Y-110698643D01*
X142065224Y-110728881D01*
X142095462Y-110789357D01*
X142095462Y-110940547D01*
X142065224Y-111001024D01*
X142034986Y-111031262D01*
X141460462Y-110275309D02*
X141460462Y-110214833D01*
X141490700Y-110154357D01*
X141520938Y-110124119D01*
X141581414Y-110093881D01*
X141702367Y-110063642D01*
X141853557Y-110063642D01*
X141974510Y-110093881D01*
X142034986Y-110124119D01*
X142065224Y-110154357D01*
X142095462Y-110214833D01*
X142095462Y-110275309D01*
X142065224Y-110335785D01*
X142034986Y-110366023D01*
X141974510Y-110396262D01*
X141853557Y-110426500D01*
X141702367Y-110426500D01*
X141581414Y-110396262D01*
X141520938Y-110366023D01*
X141490700Y-110335785D01*
X141460462Y-110275309D01*
X142095462Y-109791500D02*
X141672129Y-109791500D01*
X141732605Y-109791500D02*
X141702367Y-109761261D01*
X141672129Y-109700785D01*
X141672129Y-109610071D01*
X141702367Y-109549595D01*
X141762843Y-109519357D01*
X142095462Y-109519357D01*
X141762843Y-109519357D02*
X141702367Y-109489119D01*
X141672129Y-109428642D01*
X141672129Y-109337928D01*
X141702367Y-109277452D01*
X141762843Y-109247214D01*
X142095462Y-109247214D01*
X142095462Y-108944833D02*
X141672129Y-108944833D01*
X141460462Y-108944833D02*
X141490700Y-108975071D01*
X141520938Y-108944833D01*
X141490700Y-108914594D01*
X141460462Y-108944833D01*
X141520938Y-108944833D01*
X142095462Y-108551737D02*
X142065224Y-108612213D01*
X142004748Y-108642452D01*
X141460462Y-108642452D01*
D22*
X141133649Y-112574977D02*
X141169934Y-112466120D01*
X141169934Y-112284691D01*
X141133649Y-112212120D01*
X141097363Y-112175834D01*
X141024791Y-112139549D01*
X140952220Y-112139549D01*
X140879649Y-112175834D01*
X140843363Y-112212120D01*
X140807077Y-112284691D01*
X140770791Y-112429834D01*
X140734506Y-112502406D01*
X140698220Y-112538691D01*
X140625649Y-112574977D01*
X140553077Y-112574977D01*
X140480506Y-112538691D01*
X140444220Y-112502406D01*
X140407934Y-112429834D01*
X140407934Y-112248406D01*
X140444220Y-112139549D01*
X140407934Y-111667835D02*
X140407934Y-111522692D01*
X140444220Y-111450120D01*
X140516791Y-111377549D01*
X140661934Y-111341263D01*
X140915934Y-111341263D01*
X141061077Y-111377549D01*
X141133649Y-111450120D01*
X141169934Y-111522692D01*
X141169934Y-111667835D01*
X141133649Y-111740406D01*
X141061077Y-111812977D01*
X140915934Y-111849263D01*
X140661934Y-111849263D01*
X140516791Y-111812977D01*
X140444220Y-111740406D01*
X140407934Y-111667835D01*
X141169934Y-111014691D02*
X140407934Y-111014691D01*
X141097363Y-110216406D02*
X141133649Y-110252692D01*
X141169934Y-110361549D01*
X141169934Y-110434120D01*
X141133649Y-110542977D01*
X141061077Y-110615549D01*
X140988506Y-110651834D01*
X140843363Y-110688120D01*
X140734506Y-110688120D01*
X140589363Y-110651834D01*
X140516791Y-110615549D01*
X140444220Y-110542977D01*
X140407934Y-110434120D01*
X140407934Y-110361549D01*
X140444220Y-110252692D01*
X140480506Y-110216406D01*
X140879649Y-109889834D02*
X140879649Y-109309263D01*
X140734506Y-108837548D02*
X140698220Y-108910120D01*
X140661934Y-108946405D01*
X140589363Y-108982691D01*
X140553077Y-108982691D01*
X140480506Y-108946405D01*
X140444220Y-108910120D01*
X140407934Y-108837548D01*
X140407934Y-108692405D01*
X140444220Y-108619834D01*
X140480506Y-108583548D01*
X140553077Y-108547263D01*
X140589363Y-108547263D01*
X140661934Y-108583548D01*
X140698220Y-108619834D01*
X140734506Y-108692405D01*
X140734506Y-108837548D01*
X140770791Y-108910120D01*
X140807077Y-108946405D01*
X140879649Y-108982691D01*
X141024791Y-108982691D01*
X141097363Y-108946405D01*
X141133649Y-108910120D01*
X141169934Y-108837548D01*
X141169934Y-108692405D01*
X141133649Y-108619834D01*
X141097363Y-108583548D01*
X141024791Y-108547263D01*
X140879649Y-108547263D01*
X140807077Y-108583548D01*
X140770791Y-108619834D01*
X140734506Y-108692405D01*
M02*
